<svg width="72" height="30" viewBox="0 0 72 30" fill="none" xmlns="http://www.w3.org/2000/svg">
<path d="M36 1.78223C45.8688 1.78223 54.768 3.34899 61.1709 5.85449C64.3747 7.10815 66.9143 8.58159 68.6396 10.1777C70.3641 11.7731 71.2178 13.433 71.2178 15.0869C71.2178 16.7408 70.3641 18.4007 68.6396 19.9961C66.9143 21.5923 64.3747 23.0657 61.1709 24.3193C54.768 26.8248 45.8688 28.3916 36 28.3916C26.1312 28.3916 17.232 26.8248 10.8291 24.3193C7.62532 23.0657 5.08568 21.5923 3.36035 19.9961C1.6359 18.4007 0.782227 16.7408 0.782227 15.0869C0.782241 13.433 1.63591 11.7731 3.36035 10.1777C5.08568 8.58159 7.62533 7.10815 10.8291 5.85449C17.232 3.34899 26.1312 1.78223 36 1.78223Z" fill="white" stroke="black" stroke-width="1.56522"/>
<circle cx="36" cy="15" r="14.087" fill="black"/>
</svg>
