<svg width="92" height="28" viewBox="0 0 92 28" fill="none" xmlns="http://www.w3.org/2000/svg">
<g clip-path="url(#clip0_499_10544)">
<path d="M79.6391 7.70825H77.6346V20.5948H79.6391V7.70825Z" fill="#191919"/>
<path d="M41.3486 14.6128H47.2849V13.0185H41.3486V9.14457H47.4519V7.41846H41.3486V9.14457H39.4212V20.5949H47.7089V19.0006H41.3486V14.6128Z" fill="#191919"/>
<path d="M68.5502 7.41846H64.0787V20.5949H66.0575V9.05234H68.5502C71.2486 9.05234 72.405 10.7258 72.405 14.0067C72.405 17.2876 71.2486 18.8029 68.5502 18.8029H68.0234V20.5949H68.5502C72.0581 20.5949 74.4994 18.5394 74.4994 14.0067C74.4994 9.47399 72.0581 7.41846 68.5502 7.41846Z" fill="#191919"/>
<path d="M54.5704 7.41846L50.0218 20.5949H51.8721L53.0028 17.3272H57.0888L56.562 15.825H53.5168L55.5212 9.50034L59.4145 20.5949H61.4575L56.8318 7.41846H54.5704Z" fill="#191919"/>
<path d="M28.4737 13.5192V8.89421H31.4033C32.8296 8.89421 33.6134 9.93516 33.6134 11.345V13.5192H35.0011C35.438 12.8735 35.6307 11.938 35.6307 11.3055C35.6307 8.84151 33.7676 7.40527 31.5447 7.40527H26.5335V20.5817H28.4737V14.9949H32.1357L34.3972 20.5817H36.4916L33.6134 13.506H28.4737V13.5192Z" fill="#191919"/>
<path d="M84.1877 7.31289C81.6307 7.29971 79.7162 8.19571 79.6391 11.0814H81.3352C81.4508 9.57924 82.0804 8.73595 83.995 8.80183H84.8173V7.31289H84.1877Z" fill="#191919"/>
<path d="M11.5128 11.7798C13.3153 11.7798 14.7765 10.7828 14.7765 9.553C14.7765 8.32316 13.3153 7.32617 11.5128 7.32617C9.71035 7.32617 8.24915 8.32316 8.24915 9.553C8.24915 10.7828 9.71035 11.7798 11.5128 11.7798Z" fill="#2550AF"/>
<path d="M18.0402 15.1001C19.8427 15.1001 21.3039 14.1031 21.3039 12.8733C21.3039 11.6435 19.8427 10.6465 18.0402 10.6465C16.2378 10.6465 14.7766 11.6435 14.7766 12.8733C14.7766 14.1031 16.2378 15.1001 18.0402 15.1001Z" fill="#75B4F8"/>
<path d="M10.4464 17.3401C12.2488 17.3401 13.7101 16.3431 13.7101 15.1133C13.7101 13.8835 12.2488 12.8865 10.4464 12.8865C8.64388 12.8865 7.18268 13.8835 7.18268 15.1133C7.18268 16.3431 8.64388 17.3401 10.4464 17.3401Z" fill="#C7B7F9"/>
<path d="M16.9609 20.687C18.7634 20.687 20.2246 19.6901 20.2246 18.4602C20.2246 17.2304 18.7634 16.2334 16.9609 16.2334C15.1584 16.2334 13.6972 17.2304 13.6972 18.4602C13.6972 19.6901 15.1584 20.687 16.9609 20.687Z" fill="#EEE500"/>
<path d="M11.5128 11.7798C13.3153 11.7798 14.7765 10.7828 14.7765 9.553C14.7765 8.32316 13.3153 7.32617 11.5128 7.32617C9.71035 7.32617 8.24915 8.32316 8.24915 9.553C8.24915 10.7828 9.71035 11.7798 11.5128 11.7798Z" fill="#2550AF"/>
<path d="M10.4464 17.3401C12.2488 17.3401 13.7101 16.3431 13.7101 15.1133C13.7101 13.8835 12.2488 12.8865 10.4464 12.8865C8.64388 12.8865 7.18268 13.8835 7.18268 15.1133C7.18268 16.3431 8.64388 17.3401 10.4464 17.3401Z" fill="#C7B7F9"/>
<path d="M16.9609 20.687C18.7634 20.687 20.2246 19.6901 20.2246 18.4602C20.2246 17.2304 18.7634 16.2334 16.9609 16.2334C15.1584 16.2334 13.6972 17.2304 13.6972 18.4602C13.6972 19.6901 15.1584 20.687 16.9609 20.687Z" fill="#EEE500"/>
</g>
<defs>
<clipPath id="clip0_499_10544">
<rect width="92" height="28" fill="white"/>
</clipPath>
</defs>
</svg>
