<svg width="20" height="20" viewBox="0 0 20 20" fill="none" xmlns="http://www.w3.org/2000/svg">
<path d="M15.6927 20H4.29823C1.92938 20 0 18.0697 0 15.6998V4.30018C0 1.93026 1.92938 0 4.29823 0H15.6927C18.0615 0 19.9909 1.93026 19.9909 4.30018V15.6998C19.9909 18.0697 18.0615 20 15.6927 20ZM4.29823 1.00029C2.47943 1.00029 0.999833 2.48056 0.999833 4.30018V15.6998C0.999833 17.5194 2.47943 18.9997 4.29823 18.9997H15.6927C17.5115 18.9997 18.9911 17.5194 18.9911 15.6998V4.30018C18.9911 2.48056 17.5115 1.00029 15.6927 1.00029H4.29823Z" fill="black"/>
<path d="M17.9713 19.2397C17.841 19.2397 17.7117 19.19 17.6217 19.0897L7.25711 8.72034C6.97693 8.44003 6.58712 8.30035 6.20762 8.32003C5.81781 8.33972 5.44767 8.53002 5.19843 8.84033L0.900204 14.2102C0.730599 14.4305 0.410122 14.4605 0.200224 14.2898C-0.0199812 14.1202 -0.0499739 13.7995 0.120576 13.5895L4.4188 8.21972C4.8386 7.69006 5.47861 7.36943 6.14764 7.33007C6.81764 7.28038 7.48667 7.55037 7.96644 8.02005L18.3311 18.3894C18.5307 18.5891 18.5307 18.8994 18.3311 19.0991C18.2308 19.1994 18.1015 19.249 17.9816 19.249L17.9713 19.2397Z" fill="black"/>
<path d="M19.4906 13.8202C19.3603 13.8202 19.231 13.7706 19.1411 13.6702L16.4424 10.9703C16.1622 10.69 15.7827 10.5503 15.3929 10.57C15.0031 10.5897 14.6329 10.78 14.3837 11.0903L12.6146 13.2999C12.445 13.5202 12.1245 13.5502 11.9146 13.3796C11.6944 13.2099 11.6644 12.8893 11.8349 12.6793L13.6041 10.4697C14.0239 9.94005 14.6536 9.61942 15.3329 9.58006C16.0029 9.53038 16.6719 9.80037 17.1517 10.2804L19.8504 12.9803C20.05 13.18 20.05 13.4903 19.8504 13.6899C19.7501 13.7902 19.6208 13.8399 19.5009 13.8399L19.4906 13.8202Z" fill="black"/>
<path d="M14.9926 7.49986C13.7528 7.49986 12.7437 6.49021 12.7437 5.24993C12.7437 4.00965 13.7528 3 14.9926 3C16.2323 3 17.2415 4.00965 17.2415 5.24993C17.2415 6.49021 16.2323 7.49986 14.9926 7.49986ZM14.9926 4.00029C14.3029 4.00029 13.7435 4.55995 13.7435 5.24993C13.7435 5.93991 14.3029 6.49957 14.9926 6.49957C15.6822 6.49957 16.2416 5.93991 16.2416 5.24993C16.2416 4.55995 15.6822 4.00029 14.9926 4.00029Z" fill="black"/>
</svg>
