<svg width="20" height="20" viewBox="0 0 20 20" fill="none" xmlns="http://www.w3.org/2000/svg">
<path d="M16.1178 0C13.9796 0 12.2356 1.78615 12.2356 3.97579C12.2356 4.38648 12.2961 4.78398 12.4103 5.15707L7.02112 7.66499C6.31435 6.67178 5.16979 6.02421 3.88221 6.02421C1.74401 6.02421 0 7.81036 0 10C0 12.1896 1.74411 13.9758 3.88221 13.9758C5.16969 13.9758 6.31423 13.3282 7.02112 12.335L12.4113 14.8419C12.2971 15.216 12.2356 15.6125 12.2356 16.0242C12.2356 18.214 13.9797 20 16.1178 20C18.256 20 20 18.2138 20 16.0242C20 13.8345 18.2559 12.0484 16.1178 12.0484C14.7142 12.0484 13.4813 12.817 12.7985 13.9647L7.4797 11.4903C7.66235 11.0298 7.7646 10.5266 7.7646 10C7.7646 9.47339 7.66235 8.9702 7.4797 8.50967L12.7985 6.03631C13.4804 7.18405 14.7143 7.95157 16.1178 7.95157C18.256 7.95157 20 6.16542 20 3.97579C20 1.78605 18.2559 0 16.1178 0ZM16.1178 0.963719C17.7477 0.963719 19.059 2.30664 19.059 3.97581C19.059 5.64506 17.7477 6.98791 16.1178 6.98791C14.4878 6.98791 13.1766 5.64498 13.1766 3.97581C13.1766 2.30657 14.4879 0.963719 16.1178 0.963719ZM3.88234 6.98791C5.5123 6.98791 6.82354 8.33083 6.82354 10C6.82354 11.6692 5.51222 13.0121 3.88234 13.0121C2.25238 13.0121 0.941138 11.6692 0.941138 10C0.941138 8.33083 2.25245 6.98791 3.88234 6.98791ZM16.1178 13.0121C17.7477 13.0121 19.059 14.355 19.059 16.0242C19.059 17.6934 17.7477 19.0363 16.1178 19.0363C14.4878 19.0363 13.1766 17.6934 13.1766 16.0242C13.1766 14.3549 14.4879 13.0121 16.1178 13.0121Z" fill="black"/>
</svg>
