<svg width="20" height="20" viewBox="0 0 20 20" fill="none" xmlns="http://www.w3.org/2000/svg">
<g clip-path="url(#clip0_436_6472)">
<path d="M19.1111 10C19.1111 4.96807 15.0319 0.888889 10 0.888889C4.96807 0.888889 0.888889 4.96807 0.888889 10C0.888889 15.0319 4.96807 19.1111 10 19.1111V20C4.47715 20 0 15.5228 0 10C0 4.47715 4.47715 0 10 0C15.5228 0 20 4.47715 20 10C20 15.5228 15.5228 20 10 20V19.1111C15.0319 19.1111 19.1111 15.0319 19.1111 10Z" fill="black"/>
<path d="M8.72881 13.0676C8.25424 9.75423 11.8531 8.58908 11.8531 6.18596C11.8531 4.9844 11.0819 3.91027 9.44068 3.91027C8.39266 3.91027 7.40395 4.38362 6.69209 5.16645L6 4.58388C6.85028 3.71001 8.01695 3 9.53955 3C11.6949 3 13 4.31079 13 6.11313C13 8.84395 9.36158 10.0273 9.75706 13.0676H8.72881ZM9.32203 17C8.76836 17 8.31356 16.5995 8.31356 16.0169C8.31356 15.3979 8.76836 14.9974 9.32203 14.9974C9.85593 14.9974 10.3305 15.3979 10.3305 16.0169C10.3305 16.5995 9.85593 17 9.32203 17Z" fill="black"/>
</g>
<defs>
<clipPath id="clip0_436_6472">
<rect width="20" height="20" fill="white"/>
</clipPath>
</defs>
</svg>
