<svg width="16" height="16" viewBox="0 0 16 16" fill="none" xmlns="http://www.w3.org/2000/svg">
<path d="M7.03829 9.45125C6.99437 9.09988 7.02072 8.79243 7.11735 8.5289C7.22276 8.26537 7.3677 8.02819 7.55217 7.81737C7.74543 7.60655 7.95625 7.41329 8.18464 7.23761C8.42182 7.06192 8.64143 6.89062 8.84347 6.72372C9.05429 6.55682 9.22558 6.38553 9.35735 6.20984C9.48911 6.03415 9.555 5.8409 9.555 5.63007C9.555 5.36655 9.48911 5.14255 9.35735 4.95807C9.22558 4.7736 9.03233 4.63306 8.77758 4.53643C8.53162 4.4398 8.23296 4.39149 7.88158 4.39149C7.47751 4.39149 7.10856 4.47933 6.77476 4.65502C6.44096 4.8307 6.11155 5.08984 5.78653 5.43243L4.70605 4.43102C5.1277 3.94788 5.62402 3.56137 6.195 3.27149C6.77476 2.97282 7.41162 2.82349 8.10558 2.82349C8.74684 2.82349 9.31343 2.92011 9.80535 3.11337C10.3061 3.30662 10.697 3.6009 10.9781 3.99619C11.2679 4.3827 11.4129 4.87023 11.4129 5.45878C11.4129 5.7838 11.3426 6.06929 11.2021 6.31525C11.0703 6.55243 10.8946 6.76764 10.675 6.9609C10.4642 7.14537 10.2402 7.32545 10.003 7.50113C9.76582 7.66804 9.54621 7.84372 9.34417 8.02819C9.14213 8.21266 8.98402 8.41909 8.86982 8.64749C8.75562 8.87588 8.7117 9.1438 8.73806 9.45125H7.03829ZM7.89476 12.9562C7.56096 12.9562 7.28425 12.8464 7.06464 12.6268C6.84504 12.4072 6.73523 12.1305 6.73523 11.7967C6.73523 11.4541 6.84504 11.173 7.06464 10.9534C7.28425 10.7338 7.56096 10.624 7.89476 10.624C8.22856 10.624 8.50527 10.7338 8.72488 10.9534C8.94449 11.173 9.05429 11.4541 9.05429 11.7967C9.05429 12.1305 8.94449 12.4072 8.72488 12.6268C8.50527 12.8464 8.22856 12.9562 7.89476 12.9562Z" fill="#E9808E"/>
<path d="M15 8C15 4.13401 11.866 1 8 1C4.13401 1 1 4.13401 1 8C1 11.866 4.13401 15 8 15V16C3.58172 16 0 12.4183 0 8C0 3.58172 3.58172 0 8 0C12.4183 0 16 3.58172 16 8C16 12.4183 12.4183 16 8 16V15C11.866 15 15 11.866 15 8Z" fill="#E9808E"/>
</svg>
