<svg width="48" height="48" viewBox="0 0 48 48" fill="none" xmlns="http://www.w3.org/2000/svg">
<path d="M36.6868 7.02365C42.6726 11.8125 43.6717 20.5822 38.9176 26.6119C34.7178 31.9394 27.4319 33.3438 21.6626 30.2962L11.6403 43.0087C10.7462 44.1427 9.10959 44.3313 7.98386 43.4318C6.85813 42.5311 6.67087 40.8825 7.56388 39.7485L17.5861 27.0361C13.3322 22.0662 13.041 14.6005 17.2408 9.27197C21.9949 3.24229 30.7009 2.2359 36.6868 7.02474V7.02365ZM21.6431 26.1038C26.119 29.6845 32.6287 28.9322 36.1823 24.4236C39.737 19.9149 38.9902 13.3575 34.5143 9.7779C30.0384 6.19716 23.5287 6.94951 19.9751 11.4581C16.4203 15.9668 17.1672 22.5242 21.6431 26.1038Z" fill="#3E51FF" stroke="black" stroke-width="0.634921" stroke-linecap="round" stroke-linejoin="round"/>
<path d="M27.9512 13.8412C24.8245 13.8413 22.0083 14.3348 19.9854 15.1215C18.9728 15.5153 18.1749 15.9764 17.6357 16.4721C17.0969 16.9676 16.8399 17.4734 16.8398 17.9682C16.8398 18.463 17.0969 18.9688 17.6357 19.4643C18.1749 19.96 18.9728 20.4211 19.9854 20.8149C22.0083 21.6016 24.8245 22.0951 27.9512 22.0952C31.0778 22.0952 33.894 21.6015 35.917 20.8149C36.9295 20.4211 37.7274 19.96 38.2666 19.4643C38.8055 18.9688 39.0625 18.463 39.0625 17.9682C39.0625 17.4734 38.8055 16.9676 38.2666 16.4721C37.7274 15.9764 36.9294 15.5152 35.917 15.1215C33.894 14.3349 31.0777 13.8412 27.9512 13.8412Z" fill="white" stroke="black" stroke-width="0.634921"/>
<circle cx="4.44444" cy="4.44444" r="4.44444" transform="matrix(-1 0 0 1 32.3965 13.5239)" fill="black"/>
</svg>
