<?xml version="1.0" encoding="UTF-8"?>
<svg id="Ebene_1" xmlns="http://www.w3.org/2000/svg" version="1.1" viewBox="0 0 1920 664.75">
  <!-- Generator: Adobe Illustrator 29.5.1, SVG Export Plug-In . SVG Version: 2.1.0 Build 141)  -->
  <defs>
    <style>
      .st0 {
        fill: #e6007e;
      }

      .st1 {
        fill: #004a7f;
      }
    </style>
  </defs>
  <path class="st1" d="M690.5,370.88v-16.28h-54.26v77.38h18.48v-24.44h30.72v-16.28h-30.72v-20.38h35.78ZM738.6,432.97c23.57,0,40.84-16.83,40.84-39.52s-17.27-39.85-40.84-39.85-41.17,17.27-41.17,39.85,17.38,39.52,41.17,39.52h0ZM738.6,415.92c-12.88,0-22.25-9.8-22.25-22.47s9.36-22.69,22.25-22.69,21.92,9.69,21.92,22.69-9.25,22.47-21.92,22.47h0ZM826.79,432.97c21.14,0,35.1-11.99,35.1-35v-43.37h-18.47v44.81c0,8.59-4.85,17.06-16.63,17.06s-16.41-8.48-16.41-17.06v-44.81h-18.48v43.37c0,23.01,13.97,35,34.89,35h0ZM932.68,354.6v45.57l-43.38-46.34h-10.23v78.15h18.04v-45.57l43.49,46.56h10.23v-78.37h-18.15ZM1000.39,354.6h-31.47v77.38h31.47c24.45,0,40.73-15.51,40.73-38.75s-16.29-38.63-40.73-38.63h0ZM999.28,415.7h-11.89v-44.82h11.89c14.65,0,23.02,9.03,23.02,22.58s-8.37,22.25-23.02,22.25h0ZM1101.87,431.98h19.59l-34.12-77.38h-11.56l-34.45,77.38h19.59l5.62-13.76h29.83l5.51,13.76h0ZM1081.4,380.91l9.13,21.8h-18.16l9.03-21.8h0ZM1182.56,354.6h-69.01v16.28h25.22v61.1h18.47v-61.1h25.32v-16.28h0ZM1191.83,431.98h18.48v-77.38h-18.48v77.38h0ZM1264.88,432.97c23.56,0,40.84-16.83,40.84-39.52s-17.28-39.85-40.84-39.85-41.17,17.27-41.17,39.85,17.38,39.52,41.17,39.52h0ZM1264.88,415.92c-12.88,0-22.25-9.8-22.25-22.47s9.37-22.69,22.25-22.69,21.92,9.69,21.92,22.69-9.25,22.47-21.92,22.47h0ZM1372.83,354.6v45.57l-43.39-46.34h-10.22v78.15h18.04v-45.57l43.49,46.56h10.23v-78.37h-18.15Z"/>
  <path class="st1" d="M690.5,238.77v-16.28h-54.26v77.38h18.48v-24.44h30.72v-16.28h-30.72v-20.38h35.78ZM765.03,285.68c-7.82,0-9.36-6.18-15.85-10.58,9.24-4.62,14.63-13.09,14.63-23.89,0-16.96-12.76-28.73-32.25-28.73h-28.28v77.38h18.48v-20.7h7.27c7.93.33,11.01,21.69,30.61,21.69,5.61,0,8.47-.99,8.47-.99v-14.3c-.99.11-2.09.11-3.08.11h0ZM721.76,263.11v-24.56h8.71c8.92,0,14.54,5.51,14.54,12.67s-5.73,11.9-14.43,11.9h-8.81ZM781.66,299.87h18.48v-77.38h-18.48v77.38h0ZM836.4,283.7v-14.66h31.7v-16.28h-31.7v-13.99h35.88v-16.28h-54.37v77.38h54.92v-16.17h-36.44ZM919.91,222.49h-31.47v77.38h31.47c24.46,0,40.73-15.51,40.73-38.74s-16.28-38.64-40.73-38.64h0ZM918.82,283.59h-11.89v-44.82h11.89c14.64,0,23.01,9.03,23.01,22.57s-8.37,22.25-23.01,22.25h0ZM1035.94,285.68c-7.81,0-9.35-6.18-15.84-10.58,9.24-4.62,14.63-13.09,14.63-23.89,0-16.96-12.76-28.73-32.25-28.73h-28.29v77.38h18.48v-20.7h7.27c7.93.33,11.01,21.69,30.6,21.69,5.62,0,8.48-.99,8.48-.99v-14.3c-1,.11-2.09.11-3.09.11h0ZM992.67,263.11v-24.56h8.7c8.93,0,14.55,5.51,14.55,12.67s-5.73,11.9-14.43,11.9h-8.81ZM1052.58,299.87h18.48v-77.38h-18.48v77.38h0ZM1125.95,300.86c13.64,0,21.91-4.73,25.76-7.7l-8.03-14.64c-1.65,1.1-7.6,4.96-16.95,4.96-13.99,0-23.12-8.59-23.12-22.35s9.14-22.25,23.12-22.25c9.36,0,15.3,3.85,16.95,4.96l8.03-14.64c-3.85-2.97-12.55-7.7-25.76-7.7-25.22,0-41.49,17.49-41.49,39.63s16.28,39.73,41.49,39.73h0ZM1216.55,222.49v30.72h-35.03v-30.72h-18.47v77.38h18.47v-30.38h35.03v30.38h18.48v-77.38h-18.48ZM1330.61,222.49v45.57l-43.39-46.34h-10.23v78.15h18.05v-45.57l43.49,46.56h10.23v-78.37h-18.15ZM1417.74,299.87h19.6l-34.12-77.38h-11.55l-34.46,77.38h19.6l5.61-13.76h29.83l5.51,13.76h0ZM1397.27,248.8l9.14,21.8h-18.16l9.02-21.8h0ZM1476.33,300.86c21.15,0,35.11-11.99,35.11-34.99v-43.38h-18.48v44.81c0,8.59-4.84,17.06-16.63,17.06s-16.41-8.48-16.41-17.06v-44.81h-18.47v43.38c0,23.01,13.97,34.99,34.89,34.99h0ZM1612.48,299.87l-2.09-77.38h-11.33l-29.4,49.09-28.85-49.09h-11.44l-2.09,77.38h18.15l.11-39.95,18.5,32.47h11.34l18.83-32.36.11,39.85h18.15ZM1680.91,299.87h19.59l-34.12-77.38h-11.56l-34.45,77.38h19.59l5.62-13.76h29.83l5.51,13.76h0ZM1660.42,248.8l9.14,21.8h-18.16l9.02-21.8h0ZM1762.61,222.49v45.57l-43.39-46.34h-10.23v78.15h18.05v-45.57l43.49,46.56h10.23v-78.37h-18.15ZM1852.51,222.49v45.57l-43.39-46.34h-10.23v78.15h18.04v-45.57l43.5,46.56h10.23v-78.37h-18.15Z"/>
  <path class="st1" d="M472.11,299.9c0-64.55-28.41-122.44-73.36-161.96v226.99c0,21.61-19.56,26.84-19.56,26.84l-264.16,70.78c37.87,32.96,87.31,52.96,141.45,52.96,119.08,0,215.62-96.53,215.62-215.62h0ZM238.68,389.13v-53.34l63.27-16.95v-35.56l-63.27,16.95v-44.45l73.7-19.75v-35.56l-111.8,29.96v168.91l38.1-10.21h0ZM397.94,137.25c-37.87-32.96-87.31-52.96-141.46-52.96-119.08,0-215.62,96.54-215.62,215.62,0,64.55,28.41,122.44,73.36,161.95v-226.99c0-21.6,19.56-26.84,19.56-26.84l264.16-70.78h0Z"/>
  <path class="st0" d="M1472.28,383.25v-4.86h-33.61v53.46h5.39v-21.22h25.18v-4.94h-25.18v-22.45h28.22ZM1495.56,432.54c9.96,0,18.25-7.75,18.25-18.1s-8.28-18.17-18.25-18.17-18.26,7.75-18.26,18.17,8.22,18.1,18.26,18.1h0ZM1495.56,427.61c-6.92,0-12.79-5.71-12.79-13.16s5.87-13.24,12.79-13.24,12.78,5.71,12.78,13.24-5.86,13.16-12.78,13.16h0ZM1540.05,396.19c-6.54,0-10.73,3.72-12.09,7.98l-.29-7.29h-4.72v34.98h5.39v-19.54c.08-5.03,3.42-10.96,10.8-10.96,1.29,0,2.28.15,3.19.46l.46-5.39c-.76-.15-1.75-.23-2.74-.23h0ZM1602.42,383.25v-4.86h-33.61v53.46h5.39v-21.22h25.18v-4.94h-25.18v-22.45h28.22ZM1626.54,396.19c-6.54,0-10.73,3.72-12.09,7.98l-.3-7.29h-4.72v34.98h5.39v-19.54c.08-5.03,3.42-10.96,10.8-10.96,1.29,0,2.28.15,3.19.46l.46-5.39c-.76-.15-1.75-.23-2.74-.23h0ZM1665.64,413.68c0-10.42-6.69-17.49-16.28-17.49-10.5,0-17.64,7.9-17.64,18.17s7.75,18.18,18.55,18.18c6.77,0,10.8-2.35,13.54-4.55l-2.51-3.96c-2.36,1.9-5.4,3.88-10.5,3.88-7.53,0-13.08-4.87-13.84-11.88h28.6s.08-.98.08-2.35h0ZM1649.52,400.82c5.93,0,10.58,4.19,10.96,10.81h-23.36c1.07-6.47,5.86-10.81,12.4-10.81h0ZM1706.11,413.68c0-10.42-6.69-17.49-16.28-17.49-10.5,0-17.64,7.9-17.64,18.17s7.75,18.18,18.55,18.18c6.77,0,10.8-2.35,13.54-4.55l-2.51-3.96c-2.36,1.9-5.4,3.88-10.5,3.88-7.53,0-13.08-4.87-13.85-11.88h28.61s.08-.98.08-2.35h0ZM1689.99,400.82c5.93,0,10.57,4.19,10.96,10.81h-23.36c1.06-6.47,5.86-10.81,12.4-10.81h0ZM1743.08,377.56v25.4c-2.51-3.65-7.07-6.76-13.62-6.76-9.51,0-16.81,7.75-16.81,18.18s7.45,18.17,16.96,18.17c6.54,0,11.11-3.04,13.77-7.06l.23,6.38h4.71v-54.3h-5.24ZM1730.53,427.61c-6.85,0-12.48-5.63-12.48-13.24s5.64-13.24,12.48-13.24c7.53,0,12.63,5.63,12.63,13.24s-5.1,13.24-12.63,13.24h0ZM1775.71,432.54c9.96,0,18.25-7.75,18.25-18.1s-8.28-18.17-18.25-18.17-18.26,7.75-18.26,18.17,8.22,18.1,18.26,18.1h0ZM1775.71,427.61c-6.92,0-12.79-5.71-12.79-13.16s5.87-13.24,12.79-13.24,12.78,5.71,12.78,13.24-5.86,13.16-12.78,13.16h0ZM1845.39,396.19c-6.16,0-10.73,3.87-12.55,8.13-2.21-5.02-6.76-8.13-13-8.13-5.62,0-10.1,3.27-12.09,7.22l-.23-6.53h-4.42v34.98h5.42l.08-20.76c.46-4.8,4.02-9.97,10.4-9.97,6.24-.08,9.96,4.71,9.96,11.94v18.79h5.39v-19.17c0-6.24,4.12-11.56,10.51-11.56s9.89,4.71,9.89,11.94v18.79h5.39v-19.47c0-9.74-5.77-16.19-14.75-16.19h0ZM1874.29,432.54c2.36,0,4.1-1.82,4.1-4.18s-1.74-4.18-4.1-4.18-4.18,1.9-4.18,4.18,1.75,4.18,4.18,4.18h0Z"/>
  <path class="st1" d="M676.26,560.95v17.18c-3.16,1.54-8.17,3.16-14.64,3.16-12.56,0-23.19-9.32-23.19-22.65s10.63-22.88,23.65-22.88c8.09,0,12.94,3,14.48,4.31l2.54-4.39c-2-1.38-7.62-4.92-17.56-4.92-16.26,0-28.65,11.93-28.65,27.88s12.39,27.64,28.49,27.64c10.63,0,16.94-3.46,20.4-5.46v-19.87h-5.54ZM694.37,585.59h5.46v-54.98h-5.46v54.98h0ZM728.85,586.29c10.09,0,18.47-7.85,18.47-18.32s-8.39-18.4-18.47-18.4-18.48,7.85-18.48,18.4,8.31,18.32,18.48,18.32h0ZM728.85,581.29c-7.01,0-12.95-5.78-12.95-13.33s5.93-13.41,12.95-13.41,12.94,5.78,12.94,13.41-5.93,13.33-12.94,13.33h0ZM776.87,549.48c-6.63,0-11.25,3.15-13.79,6.84v-25.71h-5.31v54.98h4.76l.23-6.46c2.7,4.08,7.32,7.15,13.95,7.15,9.63,0,17.17-7.85,17.17-18.4s-7.39-18.4-17.02-18.4h0ZM775.79,581.29c-7.64,0-12.79-5.62-12.79-13.41s5.15-13.4,12.79-13.4c6.93,0,12.64,5.7,12.64,13.4s-5.7,13.41-12.64,13.41h0ZM833.58,550.18l-.16,6.31c-2.46-3.85-7.24-7-14.18-7-9.63,0-17.01,7.85-17.01,18.4s7.54,18.4,17.17,18.4c6.62,0,11.32-3,14.02-7.08l.16,6.38h4.76v-35.42h-4.76ZM820.33,581.29c-6.93,0-12.64-5.7-12.64-13.41s5.7-13.4,12.64-13.4c7.63,0,12.79,5.7,12.79,13.4s-5.16,13.41-12.79,13.41h0ZM851.25,585.59h5.46v-54.98h-5.46v54.98h0ZM889.83,585.59h5.46v-54.13h-5.46v54.13h0ZM927.56,549.48c-6.47,0-11.08,3.3-13.08,7.31l-.23-6.61h-4.48v35.42h5.48l.08-21.02c.54-4.86,4.31-10.09,11.31-10.09,6.54-.08,10.92,4.7,10.92,12.17v18.95h5.46v-19.64c0-9.94-6.23-16.47-15.46-16.47h0ZM973.2,549.48c-6.47,0-11.08,3.3-13.08,7.31l-.23-6.61h-4.48v35.42h5.48l.08-21.02c.54-4.86,4.31-10.09,11.31-10.09,6.54-.08,10.93,4.7,10.93,12.17v18.95h5.46v-19.64c0-9.94-6.23-16.47-15.46-16.47h0ZM1017.04,586.29c10.1,0,18.48-7.85,18.48-18.32s-8.39-18.4-18.48-18.4-18.47,7.85-18.47,18.4,8.31,18.32,18.47,18.32h0ZM1017.04,581.29c-7.01,0-12.94-5.78-12.94-13.33s5.93-13.41,12.94-13.41,12.95,5.78,12.95,13.41-5.93,13.33-12.95,13.33h0ZM1070.65,550.18l-12.17,28.73-12.47-28.73h-6l15.94,35.8h4.7l15.86-35.8h-5.85ZM1112.39,550.18l-.16,6.31c-2.46-3.85-7.24-7-14.18-7-9.62,0-17.01,7.85-17.01,18.4s7.54,18.4,17.17,18.4c6.63,0,11.32-3,14.02-7.08l.16,6.38h4.76v-35.42h-4.76ZM1099.14,581.29c-6.93,0-12.64-5.7-12.64-13.41s5.7-13.4,12.64-13.4c7.63,0,12.79,5.7,12.79,13.4s-5.16,13.41-12.79,13.41h0ZM1145.01,586.29c5.85,0,9-2.46,10.09-3.3l-2.08-4.23c-.85.54-3.08,2.7-7.08,2.7-5.16,0-7.93-2.23-7.93-7.4v-19.42h14.86v-4.46h-14.86v-12.17h-5.31v12.17h-7.32v4.46h7.25v19.42c0,7.86,5.22,12.24,12.39,12.24h0ZM1165.52,542.77c2.46,0,4.31-1.69,4.31-4.15s-1.84-4.15-4.31-4.15c-2.39.08-4.23,1.69-4.23,4.15s1.84,4.15,4.23,4.15h0ZM1162.8,585.59h5.55v-35.42h-5.48l-.08,35.42h0ZM1197.08,586.29c10.1,0,18.48-7.85,18.48-18.32s-8.39-18.4-18.48-18.4-18.47,7.85-18.47,18.4,8.31,18.32,18.47,18.32h0ZM1197.08,581.29c-7.01,0-12.94-5.78-12.94-13.33s5.93-13.41,12.94-13.41,12.95,5.78,12.95,13.41-5.93,13.33-12.95,13.33h0ZM1243.81,549.48c-6.47,0-11.09,3.3-13.08,7.31l-.24-6.61h-4.48v35.42h5.49l.08-21.02c.54-4.86,4.31-10.09,11.31-10.09,6.54-.08,10.92,4.7,10.92,12.17v18.95h5.47v-19.64c0-9.94-6.23-16.47-15.46-16.47h0ZM1332.14,531.46v24.26h-34.97v-24.26h-5.46v54.13h5.46v-24.95h34.97v24.95h5.46v-54.13h-5.46ZM1378.93,550.18v19.72c-.08,5.08-3.77,11.09-11.25,11.17-6.4,0-10.48-4.85-10.48-12.25v-18.64h-5.47v19.64c0,9.94,6.15,16.47,15.33,16.47,5.93,0,10.33-3.07,12.4-6.77l.16,6.07h4.76v-35.42h-5.46ZM1416.27,549.48c-6.63,0-11.25,3.15-13.8,6.84v-25.71h-5.31v54.98h4.77l.23-6.46c2.69,4.08,7.32,7.15,13.94,7.15,9.63,0,17.17-7.85,17.17-18.4s-7.38-18.4-17.01-18.4h0ZM1415.19,581.29c-7.63,0-12.79-5.62-12.79-13.41s5.16-13.4,12.79-13.4c6.94,0,12.64,5.7,12.64,13.4s-5.7,13.41-12.64,13.41h0Z"/>
</svg>