<svg width="80" height="24" viewBox="0 0 80 24" fill="none" xmlns="http://www.w3.org/2000/svg">
<g clip-path="url(#clip0_1431_1602)">
<path d="M69.2514 6.60718H67.5084V17.6528H69.2514V6.60718Z" fill="#191919"/>
<path d="M35.9553 12.5252H41.1173V11.1586H35.9553V7.83817H41.2625V6.35864H35.9553V7.83817H34.2793V17.6528H41.486V16.2862H35.9553V12.5252Z" fill="#191919"/>
<path d="M59.6089 6.35864H55.7206V17.6528H57.4413V7.75911H59.6089C61.9553 7.75911 62.9609 9.19347 62.9609 12.0057C62.9609 14.8179 61.9553 16.1168 59.6089 16.1168H59.1508V17.6528H59.6089C62.6592 17.6528 64.7821 15.8909 64.7821 12.0057C64.7821 8.12053 62.6592 6.35864 59.6089 6.35864Z" fill="#191919"/>
<path d="M47.4525 6.35864L43.4972 17.6528H45.1061L46.0894 14.8518H49.6424L49.1843 13.5643H46.5363L48.2793 8.14311L51.6648 17.6528H53.4413L49.419 6.35864H47.4525Z" fill="#191919"/>
<path d="M24.7598 11.5879V7.62365H27.3073C28.5475 7.62365 29.2291 8.51588 29.2291 9.72435V11.5879H30.4358C30.8156 11.0345 30.9832 10.2326 30.9832 9.69047C30.9832 7.57847 29.3631 6.34741 27.4302 6.34741H23.0726V17.6415H24.7598V12.8528H27.9441L29.9106 17.6415H31.7318L29.2291 11.5766H24.7598V11.5879Z" fill="#191919"/>
<path d="M73.2067 6.26819C70.9833 6.25689 69.3184 7.02489 69.2514 9.49831H70.7263C70.8268 8.21078 71.3743 7.48795 73.0391 7.54442H73.7542V6.26819H73.2067Z" fill="#191919"/>
<path d="M10.0111 10.097C11.5785 10.097 12.8491 9.2424 12.8491 8.18825C12.8491 7.1341 11.5785 6.27954 10.0111 6.27954C8.44377 6.27954 7.17316 7.1341 7.17316 8.18825C7.17316 9.2424 8.44377 10.097 10.0111 10.097Z" fill="#2550AF"/>
<path d="M15.6872 12.9431C17.2545 12.9431 18.5252 12.0886 18.5252 11.0344C18.5252 9.98029 17.2545 9.12573 15.6872 9.12573C14.1198 9.12573 12.8492 9.98029 12.8492 11.0344C12.8492 12.0886 14.1198 12.9431 15.6872 12.9431Z" fill="#75B4F8"/>
<path d="M9.08378 14.8631C10.6512 14.8631 11.9218 14.0085 11.9218 12.9544C11.9218 11.9002 10.6512 11.0457 9.08378 11.0457C7.5164 11.0457 6.24579 11.9002 6.24579 12.9544C6.24579 14.0085 7.5164 14.8631 9.08378 14.8631Z" fill="#C7B7F9"/>
<path d="M14.7486 17.7317C16.316 17.7317 17.5866 16.8772 17.5866 15.823C17.5866 14.7689 16.316 13.9143 14.7486 13.9143C13.1813 13.9143 11.9106 14.7689 11.9106 15.823C11.9106 16.8772 13.1813 17.7317 14.7486 17.7317Z" fill="#EEE500"/>
<path d="M10.0111 10.097C11.5785 10.097 12.8491 9.2424 12.8491 8.18825C12.8491 7.1341 11.5785 6.27954 10.0111 6.27954C8.44377 6.27954 7.17316 7.1341 7.17316 8.18825C7.17316 9.2424 8.44377 10.097 10.0111 10.097Z" fill="#2550AF"/>
<path d="M9.08378 14.8631C10.6512 14.8631 11.9218 14.0085 11.9218 12.9544C11.9218 11.9002 10.6512 11.0457 9.08378 11.0457C7.5164 11.0457 6.24579 11.9002 6.24579 12.9544C6.24579 14.0085 7.5164 14.8631 9.08378 14.8631Z" fill="#C7B7F9"/>
<path d="M14.7486 17.7317C16.316 17.7317 17.5866 16.8772 17.5866 15.823C17.5866 14.7689 16.316 13.9143 14.7486 13.9143C13.1813 13.9143 11.9106 14.7689 11.9106 15.823C11.9106 16.8772 13.1813 17.7317 14.7486 17.7317Z" fill="#EEE500"/>
</g>
<defs>
<clipPath id="clip0_1431_1602">
<rect width="80" height="24" fill="white"/>
</clipPath>
</defs>
</svg>
