<svg width="207" height="35" viewBox="0 0 207 35" fill="none" xmlns="http://www.w3.org/2000/svg">
<path d="M25.7766 2.87033C30.919 6.98439 31.7773 14.5184 27.6931 19.6984C24.0851 24.2752 17.8258 25.4817 12.8694 22.8636L4.25937 33.7848C3.49127 34.759 2.08525 34.921 1.11814 34.1482C0.151033 33.3745 -0.00984001 31.9582 0.757334 30.984L9.36737 20.0628C5.71283 15.7933 5.46268 9.37958 9.07073 4.80184C13.1549 -0.378203 20.6342 -1.24279 25.7766 2.87127V2.87033ZM12.8527 19.2619C16.6978 22.3381 22.2903 21.6918 25.3432 17.8185C28.397 13.9451 27.7554 8.31172 23.9102 5.23648C20.0651 2.1603 14.4726 2.80663 11.4197 6.67996C8.36585 10.5533 9.0075 16.1867 12.8527 19.2619Z" fill="#3E51FF" stroke="black" stroke-width="0.545455" stroke-linecap="round" stroke-linejoin="round"/>
<path d="M18.2726 8.72704C15.5864 8.72705 13.1667 9.15079 11.4288 9.82664C10.559 10.1649 9.87346 10.5619 9.41026 10.9878C8.94761 11.4133 8.72765 11.848 8.72765 12.2729C8.72771 12.6979 8.94755 13.1326 9.41026 13.5581C9.87342 13.9839 10.5591 14.38 11.4288 14.7182C13.1667 15.3941 15.5864 15.8178 18.2726 15.8179C20.9588 15.8179 23.3784 15.3941 25.1163 14.7182C25.9862 14.38 26.6717 13.984 27.1349 13.5581C27.5977 13.1325 27.8184 12.6979 27.8185 12.2729C27.8185 11.8479 27.5977 11.4134 27.1349 10.9878C26.6717 10.5619 25.9862 10.1649 25.1163 9.82664C23.3784 9.15082 20.9587 8.72704 18.2726 8.72704Z" fill="white" stroke="black" stroke-width="0.545455"/>
<circle cx="3.81819" cy="3.81819" r="3.81819" transform="matrix(-1 0 0 1 22.0909 8.45457)" fill="black"/>
<path d="M39.3288 14.8426H49.2408V20.8666H47.7288V16.2586H40.7688V20.9266H39.3288V14.8426ZM40.0728 18.8506H48.5688V20.2666H40.0728V18.8506ZM43.4808 12.7546H45.0048V24.0226H43.4808V12.7546ZM50.8368 18.2866H61.7328V19.7026H50.8368V18.2866ZM52.0968 14.3266H60.5808V18.8386H59.0448V15.7306H53.5488V18.8386H52.0968V14.3266ZM55.6488 12.7546H57.1008V16.7026C57.1008 17.2706 57.0608 17.8426 56.9808 18.4186C56.9088 18.9866 56.7648 19.5466 56.5488 20.0986C56.3408 20.6426 56.0288 21.1626 55.6128 21.6586C55.2048 22.1466 54.6688 22.5906 54.0048 22.9906C53.3408 23.3906 52.5208 23.7306 51.5448 24.0106C51.4968 23.8906 51.4248 23.7506 51.3288 23.5906C51.2408 23.4306 51.1448 23.2706 51.0408 23.1106C50.9368 22.9586 50.8408 22.8346 50.7528 22.7386C51.6248 22.4986 52.3528 22.2106 52.9368 21.8746C53.5208 21.5386 53.9928 21.1666 54.3528 20.7586C54.7128 20.3506 54.9848 19.9226 55.1688 19.4746C55.3608 19.0186 55.4888 18.5586 55.5528 18.0946C55.6168 17.6226 55.6488 17.1586 55.6488 16.7026V12.7546ZM56.4768 20.9146L57.4488 19.9066C57.7688 20.1146 58.1208 20.3466 58.5048 20.6026C58.8968 20.8506 59.2888 21.1106 59.6808 21.3826C60.0808 21.6466 60.4528 21.9066 60.7968 22.1626C61.1408 22.4106 61.4328 22.6346 61.6728 22.8346L60.6168 24.0106C60.4008 23.8026 60.1248 23.5666 59.7888 23.3026C59.4608 23.0466 59.1048 22.7786 58.7208 22.4986C58.3448 22.2106 57.9608 21.9346 57.5688 21.6706C57.1768 21.3986 56.8128 21.1466 56.4768 20.9146ZM62.8008 13.4626H68.3208V14.8546H62.8008V13.4626ZM65.8368 16.9546H67.9848V18.3106H65.8368V16.9546ZM65.2128 14.2066H66.6168V21.7426H65.2128V14.2066ZM63.1488 16.2946H64.4448V21.9706H63.1488V16.2946ZM62.5128 21.5506C63.0008 21.4706 63.5608 21.3706 64.1928 21.2506C64.8328 21.1306 65.5048 20.9986 66.2088 20.8546C66.9208 20.7106 67.6208 20.5666 68.3088 20.4226L68.4408 21.7426C67.7768 21.8866 67.1088 22.0346 66.4368 22.1866C65.7648 22.3386 65.1128 22.4866 64.4808 22.6306C63.8568 22.7666 63.2888 22.8906 62.7768 23.0026L62.5128 21.5506ZM69.1848 14.9506H73.9008V16.2826H69.1848V14.9506ZM69.4848 12.7546L70.9128 12.9826C70.7768 13.7506 70.6008 14.4986 70.3848 15.2266C70.1768 15.9546 69.9288 16.6266 69.6408 17.2426C69.3528 17.8586 69.0248 18.3946 68.6568 18.8506C68.5848 18.7626 68.4808 18.6546 68.3448 18.5266C68.2168 18.3986 68.0768 18.2746 67.9248 18.1546C67.7808 18.0266 67.6528 17.9266 67.5408 17.8546C67.8848 17.4626 68.1808 16.9986 68.4288 16.4626C68.6768 15.9266 68.8888 15.3426 69.0648 14.7106C69.2408 14.0706 69.3808 13.4186 69.4848 12.7546ZM71.7648 15.7666L73.1928 15.8866C73.0168 17.2546 72.7488 18.4586 72.3888 19.4986C72.0288 20.5306 71.5288 21.4226 70.8888 22.1746C70.2488 22.9266 69.4248 23.5546 68.4168 24.0586C68.3768 23.9466 68.3088 23.8106 68.2128 23.6506C68.1168 23.4906 68.0128 23.3306 67.9008 23.1706C67.7888 23.0186 67.6888 22.8906 67.6008 22.7866C68.5128 22.3786 69.2488 21.8546 69.8088 21.2146C70.3768 20.5746 70.8128 19.8026 71.1168 18.8986C71.4208 17.9946 71.6368 16.9506 71.7648 15.7666ZM69.8928 16.0066C70.0688 17.0306 70.3248 17.9906 70.6608 18.8866C70.9968 19.7746 71.4368 20.5546 71.9808 21.2266C72.5248 21.8906 73.2008 22.4106 74.0088 22.7866C73.9048 22.8746 73.7888 22.9906 73.6608 23.1346C73.5328 23.2786 73.4128 23.4266 73.3008 23.5786C73.1968 23.7386 73.1048 23.8826 73.0248 24.0106C72.1608 23.5466 71.4408 22.9386 70.8648 22.1866C70.2968 21.4346 69.8328 20.5546 69.4728 19.5466C69.1208 18.5386 68.8368 17.4266 68.6208 16.2106L69.8928 16.0066ZM80.0688 17.1466H85.7928V18.4786H80.0688V17.1466ZM80.2248 19.4746L81.3888 19.0066C81.5328 19.2386 81.6808 19.4906 81.8328 19.7626C81.9848 20.0266 82.1248 20.2866 82.2528 20.5426C82.3888 20.7906 82.4968 21.0186 82.5768 21.2266L81.3648 21.7786C81.2928 21.5786 81.1928 21.3466 81.0648 21.0826C80.9368 20.8106 80.8008 20.5346 80.6568 20.2546C80.5128 19.9746 80.3688 19.7146 80.2248 19.4746ZM83.2248 15.5506H84.6528V22.4266C84.6528 22.7946 84.6088 23.0826 84.5208 23.2906C84.4408 23.5066 84.2768 23.6706 84.0288 23.7826C83.7968 23.8946 83.5048 23.9626 83.1528 23.9866C82.8088 24.0186 82.4008 24.0346 81.9288 24.0346C81.9048 23.8346 81.8488 23.5986 81.7608 23.3266C81.6728 23.0546 81.5808 22.8186 81.4848 22.6186C81.7888 22.6266 82.0848 22.6346 82.3728 22.6426C82.6608 22.6426 82.8568 22.6426 82.9608 22.6426C83.0568 22.6346 83.1248 22.6146 83.1648 22.5826C83.2048 22.5506 83.2248 22.4946 83.2248 22.4146V15.5506ZM79.0128 15.3586L80.4168 15.7666C80.2168 16.3106 79.9728 16.8626 79.6848 17.4226C79.4048 17.9826 79.0848 18.5106 78.7248 19.0066C78.3728 19.5026 77.9888 19.9386 77.5728 20.3146C77.5408 20.1866 77.4888 20.0386 77.4168 19.8706C77.3448 19.7026 77.2728 19.5346 77.2008 19.3666C77.1288 19.1986 77.0568 19.0586 76.9848 18.9466C77.2968 18.6506 77.5848 18.3026 77.8488 17.9026C78.1128 17.4946 78.3448 17.0706 78.5448 16.6306C78.7448 16.1826 78.9008 15.7586 79.0128 15.3586ZM76.2888 13.9186H85.7808V15.2506H76.2888V13.9186ZM75.5208 13.9186H76.9848V17.6026C76.9848 18.0666 76.9728 18.5826 76.9488 19.1506C76.9248 19.7186 76.8728 20.3026 76.7928 20.9026C76.7128 21.4946 76.5968 22.0666 76.4448 22.6186C76.2928 23.1706 76.0928 23.6666 75.8448 24.1066C75.7648 24.0266 75.6448 23.9306 75.4848 23.8186C75.3248 23.7066 75.1608 23.6026 74.9928 23.5066C74.8328 23.4106 74.6928 23.3386 74.5728 23.2906C74.7968 22.8906 74.9728 22.4506 75.1008 21.9706C75.2288 21.4826 75.3208 20.9866 75.3768 20.4826C75.4408 19.9706 75.4808 19.4706 75.4968 18.9826C75.5128 18.4866 75.5208 18.0266 75.5208 17.6026V13.9186ZM78.2088 18.0826L79.4568 16.8346L79.5528 16.8826V24.0106H78.2088V18.0826ZM79.6608 12.9826L81.1248 12.6106C81.2608 12.8746 81.3928 13.1626 81.5208 13.4746C81.6568 13.7786 81.7608 14.0426 81.8328 14.2666L80.3088 14.7226C80.2448 14.4906 80.1528 14.2106 80.0328 13.8826C79.9128 13.5546 79.7888 13.2546 79.6608 12.9826ZM89.5488 17.7826L90.4968 17.5186C90.5928 17.7666 90.6848 18.0346 90.7728 18.3226C90.8608 18.6026 90.9408 18.8786 91.0128 19.1506C91.0928 19.4226 91.1448 19.6586 91.1688 19.8586L90.1608 20.1946C90.1288 19.9866 90.0808 19.7466 90.0168 19.4746C89.9528 19.1946 89.8808 18.9066 89.8008 18.6106C89.7208 18.3146 89.6368 18.0386 89.5488 17.7826ZM88.4208 20.8306L89.3568 20.6026C89.4288 21.0106 89.4928 21.4466 89.5488 21.9106C89.6128 22.3746 89.6528 22.7786 89.6688 23.1226L88.6848 23.3746C88.6848 23.1426 88.6688 22.8786 88.6368 22.5826C88.6128 22.2866 88.5808 21.9906 88.5408 21.6946C88.5008 21.3906 88.4608 21.1026 88.4208 20.8306ZM87.2328 20.6866L88.2408 20.8546C88.1848 21.3826 88.1008 21.9106 87.9888 22.4386C87.8848 22.9666 87.7648 23.4106 87.6288 23.7706C87.5168 23.7146 87.3568 23.6506 87.1488 23.5786C86.9488 23.5146 86.7848 23.4666 86.6568 23.4346C86.8088 23.0746 86.9288 22.6506 87.0168 22.1626C87.1128 21.6666 87.1848 21.1746 87.2328 20.6866ZM86.9808 17.5306C86.9568 17.4426 86.9208 17.3266 86.8728 17.1826C86.8248 17.0306 86.7728 16.8786 86.7168 16.7266C86.6608 16.5666 86.6088 16.4346 86.5608 16.3306C86.6808 16.2986 86.7928 16.2266 86.8968 16.1146C87.0008 16.0026 87.1088 15.8546 87.2208 15.6706C87.3088 15.5586 87.4328 15.3506 87.5928 15.0466C87.7608 14.7426 87.9368 14.3866 88.1208 13.9786C88.3128 13.5626 88.4728 13.1426 88.6008 12.7186L89.8488 13.2346C89.5768 13.8826 89.2528 14.5306 88.8768 15.1786C88.5008 15.8186 88.1248 16.3786 87.7488 16.8586V16.8826C87.7488 16.8826 87.7088 16.9066 87.6288 16.9546C87.5568 16.9946 87.4688 17.0506 87.3648 17.1226C87.2608 17.1866 87.1688 17.2546 87.0888 17.3266C87.0168 17.3986 86.9808 17.4666 86.9808 17.5306ZM86.9808 17.5306L86.9568 16.6066L87.4968 16.2466L89.5728 16.1026C89.5408 16.2626 89.5128 16.4426 89.4888 16.6426C89.4648 16.8426 89.4488 17.0106 89.4408 17.1466C88.8248 17.2026 88.3528 17.2546 88.0248 17.3026C87.6968 17.3426 87.4608 17.3826 87.3168 17.4226C87.1728 17.4546 87.0608 17.4906 86.9808 17.5306ZM87.0768 20.3146C87.0528 20.2346 87.0168 20.1226 86.9688 19.9786C86.9208 19.8346 86.8688 19.6866 86.8128 19.5346C86.7648 19.3826 86.7128 19.2546 86.6568 19.1506C86.8088 19.1106 86.9528 19.0226 87.0888 18.8866C87.2328 18.7426 87.3968 18.5586 87.5808 18.3346C87.6768 18.2226 87.8168 18.0386 88.0008 17.7826C88.1848 17.5266 88.3888 17.2226 88.6128 16.8706C88.8368 16.5186 89.0608 16.1386 89.2848 15.7306C89.5088 15.3226 89.7128 14.9106 89.8968 14.4946L91.0248 15.1186C90.7368 15.6626 90.4128 16.2106 90.0528 16.7626C89.7008 17.3066 89.3328 17.8306 88.9488 18.3346C88.5648 18.8306 88.1768 19.2786 87.7848 19.6786V19.7026C87.7848 19.7026 87.7488 19.7266 87.6768 19.7746C87.6048 19.8146 87.5208 19.8666 87.4248 19.9306C87.3368 19.9946 87.2568 20.0626 87.1848 20.1346C87.1128 20.1986 87.0768 20.2586 87.0768 20.3146ZM87.0768 20.3146L86.9928 19.3426L87.5208 18.9586L90.4968 18.4426C90.4808 18.6026 90.4728 18.7866 90.4728 18.9946C90.4728 19.1946 90.4768 19.3586 90.4848 19.4866C89.8048 19.6226 89.2568 19.7346 88.8408 19.8226C88.4248 19.9106 88.1008 19.9866 87.8688 20.0506C87.6368 20.1066 87.4608 20.1546 87.3408 20.1946C87.2288 20.2346 87.1408 20.2746 87.0768 20.3146ZM89.5728 20.5906L90.4728 20.3266C90.5768 20.6386 90.6688 20.9746 90.7488 21.3346C90.8368 21.6866 90.9008 21.9946 90.9408 22.2586L89.9928 22.5586C89.9608 22.2866 89.9008 21.9666 89.8128 21.5986C89.7328 21.2306 89.6528 20.8946 89.5728 20.5906ZM95.9928 20.7826L96.9528 20.3986C97.0728 20.6706 97.1928 20.9626 97.3128 21.2746C97.4408 21.5786 97.5608 21.8786 97.6728 22.1746C97.7848 22.4626 97.8768 22.7226 97.9488 22.9546L96.9528 23.4106C96.8808 23.1706 96.7928 22.8986 96.6888 22.5946C96.5848 22.2906 96.4688 21.9826 96.3408 21.6706C96.2208 21.3506 96.1048 21.0546 95.9928 20.7826ZM92.4168 20.5306H93.6048V22.4626C93.6048 22.6066 93.6288 22.7026 93.6768 22.7506C93.7248 22.7906 93.8368 22.8106 94.0128 22.8106C94.0528 22.8106 94.1208 22.8106 94.2168 22.8106C94.3128 22.8106 94.4168 22.8106 94.5288 22.8106C94.6408 22.8106 94.7448 22.8106 94.8408 22.8106C94.9448 22.8106 95.0248 22.8106 95.0808 22.8106C95.1848 22.8106 95.2608 22.7866 95.3088 22.7386C95.3648 22.6826 95.4048 22.5746 95.4288 22.4146C95.4528 22.2546 95.4728 22.0146 95.4888 21.6946C95.6008 21.7906 95.7608 21.8746 95.9688 21.9466C96.1768 22.0186 96.3568 22.0746 96.5088 22.1146C96.4768 22.5626 96.4128 22.9066 96.3168 23.1466C96.2208 23.3946 96.0848 23.5666 95.9088 23.6626C95.7328 23.7586 95.4968 23.8066 95.2008 23.8066C95.1448 23.8066 95.0528 23.8066 94.9248 23.8066C94.7968 23.8066 94.6608 23.8066 94.5168 23.8066C94.3728 23.8066 94.2368 23.8066 94.1088 23.8066C93.9888 23.8066 93.9008 23.8066 93.8448 23.8066C93.4608 23.8066 93.1648 23.7666 92.9568 23.6866C92.7568 23.6066 92.6168 23.4666 92.5368 23.2666C92.4568 23.0746 92.4168 22.8106 92.4168 22.4746V20.5306ZM91.3848 20.4946L92.3688 20.8426C92.3048 21.1306 92.2328 21.4426 92.1528 21.7786C92.0728 22.1066 91.9808 22.4346 91.8768 22.7626C91.7728 23.0826 91.6608 23.3626 91.5408 23.6026L90.5328 23.1346C90.6528 22.9026 90.7688 22.6386 90.8808 22.3426C90.9928 22.0386 91.0928 21.7266 91.1808 21.4066C91.2688 21.0866 91.3368 20.7826 91.3848 20.4946ZM93.5688 12.6586L95.0208 12.8866C94.8928 13.1586 94.7608 13.4226 94.6248 13.6786C94.4888 13.9266 94.3688 14.1386 94.2648 14.3146L93.1488 14.0746C93.2288 13.8586 93.3088 13.6186 93.3888 13.3546C93.4688 13.0906 93.5288 12.8586 93.5688 12.6586ZM94.3368 15.0706L95.2008 15.2266C94.9768 15.6266 94.6888 16.0066 94.3368 16.3666C93.9848 16.7266 93.5528 17.0586 93.0408 17.3626C92.9848 17.2666 92.9008 17.1546 92.7888 17.0266C92.6768 16.8986 92.5768 16.8066 92.4888 16.7506C92.9368 16.5106 93.3128 16.2426 93.6168 15.9466C93.9288 15.6506 94.1688 15.3586 94.3368 15.0706ZM92.8008 15.6226L93.5088 15.1546C93.8448 15.4266 94.1728 15.7346 94.4928 16.0786C94.8208 16.4146 95.1208 16.7506 95.3928 17.0866C95.6728 17.4146 95.8928 17.7146 96.0528 17.9866L95.2968 18.5386C95.1288 18.2506 94.9088 17.9346 94.6368 17.5906C94.3648 17.2466 94.0688 16.9026 93.7488 16.5586C93.4288 16.2066 93.1128 15.8946 92.8008 15.6226ZM95.3088 15.8146L96.1728 15.9586C95.8848 16.4466 95.5088 16.9186 95.0448 17.3746C94.5888 17.8306 94.0248 18.2426 93.3528 18.6106C93.3048 18.5066 93.2288 18.3946 93.1248 18.2746C93.0208 18.1466 92.9208 18.0466 92.8248 17.9746C93.2248 17.7746 93.5848 17.5546 93.9048 17.3146C94.2248 17.0746 94.5008 16.8266 94.7328 16.5706C94.9728 16.3066 95.1648 16.0546 95.3088 15.8146ZM92.6088 15.0106V18.6346H96.0768V15.0106H92.6088ZM91.3728 13.8586H97.3728V19.7866H91.3728V13.8586ZM93.7488 20.1706L94.6728 19.7386C94.8008 19.9306 94.9328 20.1426 95.0688 20.3746C95.2128 20.5986 95.3488 20.8146 95.4768 21.0226C95.6048 21.2306 95.7088 21.4146 95.7888 21.5746L94.8048 22.0786C94.7328 21.9186 94.6368 21.7306 94.5168 21.5146C94.4048 21.2906 94.2808 21.0626 94.1448 20.8306C94.0088 20.5906 93.8768 20.3706 93.7488 20.1706ZM98.8608 13.2706H102.701V14.5186H98.8608V13.2706ZM98.5848 17.1226H103.145V18.3946H98.5848V17.1226ZM100.373 17.8186H101.765V22.4866C101.765 22.8226 101.725 23.0906 101.645 23.2906C101.573 23.4906 101.425 23.6466 101.201 23.7586C100.977 23.8626 100.713 23.9306 100.409 23.9626C100.105 23.9946 99.7528 24.0106 99.3528 24.0106C99.3208 23.8026 99.2608 23.5666 99.1728 23.3026C99.0928 23.0386 99.0088 22.8146 98.9208 22.6306C99.1768 22.6386 99.4248 22.6426 99.6648 22.6426C99.9128 22.6426 100.077 22.6426 100.157 22.6426C100.245 22.6346 100.301 22.6186 100.325 22.5946C100.357 22.5706 100.373 22.5266 100.373 22.4626V17.8186ZM102.257 13.2706H102.569L102.833 13.1866L103.709 13.8106C103.517 14.1226 103.297 14.4466 103.049 14.7826C102.801 15.1186 102.545 15.4386 102.281 15.7426C102.017 16.0466 101.753 16.3146 101.489 16.5466C101.401 16.4106 101.273 16.2586 101.105 16.0906C100.945 15.9226 100.809 15.7906 100.697 15.6946C100.889 15.5026 101.085 15.2786 101.285 15.0226C101.493 14.7666 101.685 14.5066 101.861 14.2426C102.037 13.9706 102.169 13.7306 102.257 13.5226V13.2706ZM102.725 17.1226H102.917L103.109 17.0866L103.997 17.2906C103.869 17.7866 103.725 18.2946 103.565 18.8146C103.413 19.3346 103.269 19.7746 103.133 20.1346L102.065 19.9066C102.145 19.6906 102.221 19.4346 102.293 19.1386C102.373 18.8426 102.453 18.5346 102.533 18.2146C102.613 17.8946 102.677 17.5906 102.725 17.3026V17.1226ZM99.0768 15.8626L99.7968 14.9266C100.133 15.0706 100.481 15.2466 100.841 15.4546C101.209 15.6546 101.553 15.8626 101.873 16.0786C102.201 16.2866 102.465 16.4906 102.665 16.6906L101.885 17.7466C101.701 17.5546 101.453 17.3466 101.141 17.1226C100.829 16.8906 100.489 16.6626 100.121 16.4386C99.7608 16.2146 99.4128 16.0226 99.0768 15.8626ZM103.637 13.2346H109.781V14.4346H103.637V13.2346ZM105.365 18.0346V18.8026H108.053V18.0346H105.365ZM105.365 19.7866V20.5666H108.053V19.7866H105.365ZM105.365 16.2946V17.0626H108.053V16.2946H105.365ZM104.057 15.2386H109.433V21.6106H104.057V15.2386ZM105.989 13.8826L107.621 14.0746C107.509 14.4506 107.393 14.8186 107.273 15.1786C107.153 15.5386 107.045 15.8466 106.949 16.1026L105.689 15.8626C105.737 15.6706 105.777 15.4586 105.809 15.2266C105.849 14.9946 105.885 14.7626 105.917 14.5306C105.949 14.2986 105.973 14.0826 105.989 13.8826ZM105.221 21.6346L106.409 22.4026C106.185 22.6106 105.917 22.8186 105.605 23.0266C105.301 23.2346 104.981 23.4306 104.645 23.6146C104.309 23.7986 103.981 23.9506 103.661 24.0706C103.549 23.9346 103.401 23.7746 103.217 23.5906C103.033 23.4066 102.865 23.2506 102.713 23.1226C103.025 23.0106 103.341 22.8706 103.661 22.7026C103.981 22.5346 104.277 22.3586 104.549 22.1746C104.821 21.9826 105.045 21.8026 105.221 21.6346ZM106.973 22.4386L108.029 21.7066C108.261 21.8506 108.505 22.0146 108.761 22.1986C109.017 22.3826 109.261 22.5666 109.493 22.7506C109.733 22.9346 109.933 23.1026 110.093 23.2546L108.953 24.0706C108.817 23.9186 108.637 23.7466 108.413 23.5546C108.189 23.3626 107.949 23.1666 107.693 22.9666C107.437 22.7666 107.197 22.5906 106.973 22.4386ZM110.849 20.9266H121.721V22.0786H110.849V20.9266ZM113.693 17.6506V18.0946H119.045V17.6506H113.693ZM113.693 18.9106V19.3546H119.045V18.9106H113.693ZM113.693 16.4266V16.8466H119.045V16.4266H113.693ZM112.241 15.5626H120.557V20.2066H112.241V15.5626ZM117.689 19.9786H119.189V24.0106H117.689V19.9786ZM112.373 13.5226H116.369V14.5666H112.373V13.5226ZM117.269 13.5226H121.745V14.5666H117.269V13.5226ZM112.421 12.6586L113.741 13.0786C113.565 13.4626 113.349 13.8506 113.093 14.2426C112.845 14.6266 112.581 14.9906 112.301 15.3346C112.021 15.6706 111.737 15.9666 111.449 16.2226C111.385 16.1266 111.297 16.0066 111.185 15.8626C111.073 15.7186 110.957 15.5786 110.837 15.4426C110.725 15.2986 110.621 15.1826 110.525 15.0946C110.901 14.7986 111.261 14.4346 111.605 14.0026C111.949 13.5626 112.221 13.1146 112.421 12.6586ZM117.569 12.6586L118.937 12.9946C118.729 13.5226 118.457 14.0266 118.121 14.5066C117.785 14.9786 117.445 15.3786 117.101 15.7066C117.005 15.6266 116.877 15.5466 116.717 15.4666C116.565 15.3786 116.409 15.2946 116.249 15.2146C116.097 15.1346 115.961 15.0706 115.841 15.0226C116.209 14.7426 116.545 14.3906 116.849 13.9666C117.161 13.5426 117.401 13.1066 117.569 12.6586ZM113.501 14.8546L114.689 14.4586C114.785 14.5786 114.881 14.7146 114.977 14.8666C115.081 15.0186 115.161 15.1546 115.217 15.2746L113.969 15.7066C113.937 15.5866 113.873 15.4466 113.777 15.2866C113.689 15.1266 113.597 14.9826 113.501 14.8546ZM118.841 14.8306L119.945 14.3626C120.081 14.4906 120.221 14.6386 120.365 14.8066C120.517 14.9746 120.629 15.1266 120.701 15.2626L119.561 15.7666C119.489 15.6306 119.385 15.4746 119.249 15.2986C119.121 15.1226 118.985 14.9666 118.841 14.8306ZM113.717 19.9666H115.169V21.1306C115.169 21.4106 115.121 21.6906 115.025 21.9706C114.929 22.2426 114.765 22.5066 114.533 22.7626C114.309 23.0106 113.989 23.2426 113.573 23.4586C113.165 23.6826 112.645 23.8786 112.013 24.0466C111.917 23.8946 111.781 23.7146 111.605 23.5066C111.429 23.2986 111.265 23.1306 111.113 23.0026C111.665 22.8826 112.109 22.7506 112.445 22.6066C112.789 22.4546 113.053 22.2946 113.237 22.1266C113.421 21.9506 113.545 21.7746 113.609 21.5986C113.681 21.4226 113.717 21.2586 113.717 21.1066V19.9666ZM127.517 19.3186H128.957V24.0226H127.517V19.3186ZM123.125 13.5706H133.445V15.4066H132.065V14.7466H124.457V15.4066H123.125V13.5706ZM122.921 15.8026H133.625V16.9306H122.921V15.8026ZM122.825 20.1346H133.757V21.3226H122.825V20.1346ZM130.493 15.0586L131.909 15.3466C131.637 16.1866 131.269 16.8746 130.805 17.4106C130.349 17.9466 129.781 18.3746 129.101 18.6946C128.421 19.0146 127.605 19.2546 126.653 19.4146C125.701 19.5666 124.593 19.6786 123.329 19.7506C123.273 19.5426 123.201 19.3306 123.113 19.1146C123.033 18.8986 122.941 18.7186 122.837 18.5746C123.997 18.5346 125.009 18.4586 125.873 18.3466C126.745 18.2346 127.485 18.0506 128.093 17.7946C128.709 17.5386 129.209 17.1906 129.593 16.7506C129.985 16.3026 130.285 15.7386 130.493 15.0586ZM124.325 17.9266L125.453 17.0506C126.213 17.1626 126.973 17.2906 127.733 17.4346C128.501 17.5786 129.245 17.7346 129.965 17.9026C130.685 18.0706 131.353 18.2426 131.969 18.4186C132.593 18.5866 133.149 18.7546 133.637 18.9226L132.269 19.8466C131.693 19.6146 130.989 19.3826 130.157 19.1506C129.333 18.9186 128.421 18.6986 127.421 18.4906C126.429 18.2746 125.397 18.0866 124.325 17.9266ZM127.145 13.0666L128.669 12.7546C128.789 12.9466 128.913 13.1626 129.041 13.4026C129.177 13.6346 129.281 13.8346 129.353 14.0026L127.745 14.3866C127.689 14.2106 127.601 13.9986 127.481 13.7506C127.361 13.4946 127.249 13.2666 127.145 13.0666ZM124.325 17.9266C124.637 17.6306 124.965 17.2986 125.309 16.9306C125.661 16.5546 125.997 16.1666 126.317 15.7666C126.645 15.3586 126.921 14.9706 127.145 14.6026L128.501 15.0106C128.253 15.3706 127.965 15.7306 127.637 16.0906C127.317 16.4426 126.993 16.7786 126.665 17.0986C126.345 17.4186 126.045 17.6946 125.765 17.9266H124.325ZM125.465 21.3106L126.905 21.7906C126.681 22.0626 126.405 22.3266 126.077 22.5826C125.749 22.8386 125.405 23.0706 125.045 23.2786C124.693 23.4866 124.349 23.6666 124.013 23.8186C123.917 23.7306 123.793 23.6226 123.641 23.4946C123.497 23.3746 123.349 23.2586 123.197 23.1466C123.045 23.0346 122.909 22.9386 122.789 22.8586C123.317 22.6906 123.825 22.4706 124.313 22.1986C124.801 21.9266 125.185 21.6306 125.465 21.3106ZM129.533 22.0186L130.565 21.1186C130.909 21.2786 131.273 21.4666 131.657 21.6826C132.049 21.8906 132.425 22.1106 132.785 22.3426C133.153 22.5666 133.453 22.7746 133.685 22.9666L132.557 23.9626C132.349 23.7706 132.073 23.5586 131.729 23.3266C131.385 23.0946 131.017 22.8626 130.625 22.6306C130.241 22.3986 129.877 22.1946 129.533 22.0186ZM139.589 15.8986H140.885V19.4386H139.589V15.8986ZM139.589 20.2426H140.885V23.2546H139.589V20.2426ZM136.277 19.6906H144.341V23.9746H142.949V20.6626H137.597V23.9986H136.277V19.6906ZM134.945 17.2786H145.625V18.3946H134.945V17.2786ZM137.189 21.2386H143.465V22.0906H137.189V21.2386ZM137.189 22.6906H143.465V23.6866H137.189V22.6906ZM143.129 14.9506L143.861 15.9226C143.389 15.9946 142.869 16.0586 142.301 16.1146C141.733 16.1706 141.141 16.2186 140.525 16.2586C139.917 16.2986 139.309 16.3306 138.701 16.3546C138.093 16.3786 137.501 16.3906 136.925 16.3906C136.909 16.2466 136.873 16.0826 136.817 15.8986C136.761 15.7066 136.705 15.5466 136.649 15.4186C137.209 15.4026 137.785 15.3826 138.377 15.3586C138.969 15.3266 139.553 15.2946 140.129 15.2626C140.705 15.2226 141.249 15.1786 141.761 15.1306C142.281 15.0746 142.737 15.0146 143.129 14.9506ZM138.953 17.5426L139.925 17.9986C139.661 18.2946 139.353 18.5866 139.001 18.8746C138.649 19.1546 138.269 19.4226 137.861 19.6786C137.461 19.9266 137.053 20.1546 136.637 20.3626C136.221 20.5626 135.813 20.7346 135.413 20.8786C135.325 20.7266 135.197 20.5506 135.029 20.3506C134.861 20.1506 134.709 19.9866 134.573 19.8586C134.973 19.7466 135.381 19.6106 135.797 19.4506C136.213 19.2826 136.617 19.0986 137.009 18.8986C137.401 18.6906 137.765 18.4746 138.101 18.2506C138.437 18.0186 138.721 17.7826 138.953 17.5426ZM136.577 16.4746L137.957 16.1866C138.085 16.3386 138.197 16.5186 138.293 16.7266C138.397 16.9346 138.473 17.1186 138.521 17.2786L137.081 17.6146C137.041 17.4546 136.973 17.2666 136.877 17.0506C136.789 16.8346 136.689 16.6426 136.577 16.4746ZM142.673 16.0426L144.089 16.4026C143.889 16.6586 143.681 16.9066 143.465 17.1466C143.257 17.3866 143.065 17.5906 142.889 17.7586L141.797 17.4106C141.901 17.2746 142.005 17.1306 142.109 16.9786C142.221 16.8186 142.325 16.6586 142.421 16.4986C142.525 16.3306 142.609 16.1786 142.673 16.0426ZM135.077 13.5826H145.469V15.9706H144.125V14.7706H136.361V15.9706H135.077V13.5826ZM139.145 13.0066L140.681 12.6586C140.793 12.8826 140.897 13.1266 140.993 13.3906C141.089 13.6546 141.153 13.8866 141.185 14.0866L139.577 14.4586C139.553 14.2666 139.497 14.0346 139.409 13.7626C139.329 13.4826 139.241 13.2306 139.145 13.0066ZM140.693 18.3466L141.413 17.6026C141.957 17.8506 142.501 18.1146 143.045 18.3946C143.597 18.6666 144.117 18.9386 144.605 19.2106C145.093 19.4826 145.513 19.7346 145.865 19.9666L144.989 20.7586C144.661 20.5266 144.265 20.2746 143.801 20.0026C143.345 19.7226 142.849 19.4426 142.313 19.1626C141.785 18.8746 141.245 18.6026 140.693 18.3466ZM150.197 20.2546V20.8906H154.181V20.2546H150.197ZM150.197 18.7306V19.3426H154.181V18.7306H150.197ZM148.781 17.7826H155.681V21.8386H148.781V17.7826ZM146.909 14.0986H157.661V15.3466H146.909V14.0986ZM151.517 12.7546H152.945V18.1426H151.517V12.7546ZM150.869 14.4826L152.081 14.9506C151.825 15.3506 151.529 15.7346 151.193 16.1026C150.857 16.4706 150.489 16.8146 150.089 17.1346C149.697 17.4466 149.285 17.7306 148.853 17.9866C148.421 18.2426 147.973 18.4626 147.509 18.6466C147.445 18.5266 147.357 18.3986 147.245 18.2626C147.141 18.1186 147.029 17.9786 146.909 17.8426C146.797 17.7066 146.689 17.5906 146.585 17.4946C147.017 17.3586 147.441 17.1866 147.857 16.9786C148.281 16.7626 148.681 16.5226 149.057 16.2586C149.441 15.9946 149.785 15.7146 150.089 15.4186C150.401 15.1146 150.661 14.8026 150.869 14.4826ZM147.005 22.4266H157.553V23.6866H147.005V22.4266ZM152.369 15.3706L153.221 14.4826C153.573 14.6906 153.957 14.9266 154.373 15.1906C154.789 15.4466 155.201 15.7106 155.609 15.9826C156.017 16.2546 156.397 16.5186 156.749 16.7746C157.109 17.0306 157.413 17.2706 157.661 17.4946L156.737 18.5506C156.505 18.3346 156.217 18.0906 155.873 17.8186C155.529 17.5466 155.157 17.2666 154.757 16.9786C154.357 16.6906 153.949 16.4106 153.533 16.1386C153.125 15.8586 152.737 15.6026 152.369 15.3706ZM159.065 18.0106H164.513V19.1026H159.065V18.0106ZM165.233 17.5186H169.349V18.7186H165.233V17.5186ZM165.665 12.7786L166.913 13.0306C166.729 13.8146 166.485 14.5666 166.181 15.2866C165.877 15.9986 165.533 16.6026 165.149 17.0986C165.077 17.0186 164.977 16.9306 164.849 16.8346C164.721 16.7386 164.589 16.6466 164.453 16.5586C164.325 16.4626 164.209 16.3866 164.105 16.3306C164.481 15.9066 164.801 15.3786 165.065 14.7466C165.329 14.1146 165.529 13.4586 165.665 12.7786ZM159.065 13.1746H164.429V14.2666H160.373V18.4666H159.065V13.1746ZM159.701 14.8546H164.153V17.3506H159.701V16.4386H162.965V15.7786H159.701V14.8546ZM161.381 13.5826H162.533V15.2986H161.381V13.5826ZM161.381 16.7266H162.533V18.4786H161.381V16.7266ZM165.773 14.4946H169.649V15.7066H165.257L165.773 14.4946ZM158.777 22.4626H169.769V23.6986H158.777V22.4626ZM160.049 19.7146H168.533V23.0866H167.117V20.8306H166.073V23.0866H164.753V20.8306H163.721V23.0866H162.413V20.8306H161.393V23.0866H160.049V19.7146ZM172.253 18.5506H180.329V23.9986H178.925V19.5706H173.597V23.9986H172.253V18.5506ZM173.237 20.0386H179.273V20.8546H173.237V20.0386ZM176.441 13.2466H180.449V14.3626H176.441V13.2466ZM173.609 13.3066H176.117V14.2786H173.609V13.3066ZM170.837 14.9026H176.477V16.0186H170.837V14.9026ZM173.237 21.3466H179.273V22.1626H173.237V21.3466ZM173.237 22.6546H179.273V23.6866H173.237V22.6546ZM172.913 12.7426H174.293V15.4306H172.913V12.7426ZM179.957 13.2466H180.197L180.437 13.2106L181.265 13.5106C181.041 14.3746 180.717 15.1306 180.293 15.7786C179.877 16.4186 179.377 16.9626 178.793 17.4106C178.209 17.8506 177.565 18.2066 176.861 18.4786C176.781 18.3266 176.669 18.1506 176.525 17.9506C176.389 17.7506 176.257 17.5906 176.129 17.4706C176.737 17.2626 177.297 16.9706 177.809 16.5946C178.329 16.2106 178.773 15.7546 179.141 15.2266C179.517 14.6986 179.789 14.1066 179.957 13.4506V13.2466ZM177.725 14.1466C177.965 14.6506 178.277 15.1186 178.661 15.5506C179.053 15.9826 179.509 16.3546 180.029 16.6666C180.549 16.9786 181.125 17.2226 181.757 17.3986C181.661 17.4866 181.557 17.5986 181.445 17.7346C181.333 17.8626 181.225 17.9986 181.121 18.1426C181.025 18.2786 180.949 18.4026 180.893 18.5146C180.221 18.2906 179.613 17.9866 179.069 17.6026C178.533 17.2106 178.061 16.7506 177.653 16.2226C177.245 15.6866 176.901 15.1026 176.621 14.4706L177.725 14.1466ZM171.725 16.0666L172.829 16.3546C172.701 16.7146 172.533 17.0746 172.325 17.4346C172.125 17.7946 171.917 18.0986 171.701 18.3466C171.597 18.2506 171.445 18.1426 171.245 18.0226C171.053 17.9026 170.889 17.8066 170.753 17.7346C170.961 17.5186 171.149 17.2626 171.317 16.9666C171.485 16.6706 171.621 16.3706 171.725 16.0666ZM174.593 16.4626L175.601 16.0546C175.785 16.2786 175.965 16.5346 176.141 16.8226C176.325 17.1026 176.461 17.3506 176.549 17.5666L175.481 18.0226C175.409 17.8146 175.285 17.5626 175.109 17.2666C174.941 16.9706 174.769 16.7026 174.593 16.4626ZM173.069 15.5626H174.389V18.3706H173.069V15.5626ZM183.461 13.4986H193.061V14.9266H183.461V13.4986ZM182.825 18.5866H193.757V20.0386H182.825V18.5866ZM184.181 15.7066L185.501 15.3106C185.637 15.5746 185.769 15.8546 185.897 16.1506C186.033 16.4386 186.149 16.7266 186.245 17.0146C186.349 17.2946 186.425 17.5466 186.473 17.7706L185.069 18.2146C185.029 17.9906 184.965 17.7386 184.877 17.4586C184.789 17.1706 184.685 16.8746 184.565 16.5706C184.445 16.2586 184.317 15.9706 184.181 15.7066ZM191.021 15.2746L192.569 15.6706C192.425 15.9826 192.273 16.2906 192.113 16.5946C191.961 16.8986 191.809 17.1906 191.657 17.4706C191.513 17.7426 191.373 17.9826 191.237 18.1906L189.977 17.8186C190.105 17.5866 190.233 17.3226 190.361 17.0266C190.497 16.7306 190.621 16.4306 190.733 16.1266C190.853 15.8226 190.949 15.5386 191.021 15.2746ZM187.517 14.0986H189.017V24.0226H187.517V14.0986ZM196.913 22.0186H203.537V23.4106H196.913V22.0186ZM196.205 18.7186H204.341V24.0106H202.793V20.0986H197.681V24.0226H196.205V18.7186ZM201.257 14.6146L202.385 13.8586C202.753 14.2026 203.141 14.5866 203.549 15.0106C203.957 15.4346 204.341 15.8546 204.701 16.2706C205.061 16.6786 205.345 17.0546 205.553 17.3986L204.341 18.2866C204.141 17.9506 203.869 17.5706 203.525 17.1466C203.189 16.7146 202.821 16.2786 202.421 15.8386C202.021 15.3906 201.633 14.9826 201.257 14.6146ZM195.809 17.9146C195.793 17.8186 195.757 17.6866 195.701 17.5186C195.645 17.3506 195.585 17.1746 195.521 16.9906C195.457 16.8066 195.397 16.6546 195.341 16.5346C195.509 16.4946 195.669 16.4186 195.821 16.3066C195.973 16.1866 196.149 16.0346 196.349 15.8506C196.453 15.7466 196.605 15.5866 196.805 15.3706C197.005 15.1546 197.225 14.8986 197.465 14.6026C197.713 14.2986 197.961 13.9746 198.209 13.6306C198.465 13.2786 198.693 12.9226 198.893 12.5626L200.357 13.1866C199.997 13.6906 199.609 14.1866 199.193 14.6746C198.785 15.1626 198.365 15.6226 197.933 16.0546C197.509 16.4786 197.085 16.8586 196.661 17.1946V17.2306C196.661 17.2306 196.617 17.2546 196.529 17.3026C196.449 17.3506 196.353 17.4106 196.241 17.4826C196.129 17.5466 196.029 17.6226 195.941 17.7106C195.853 17.7906 195.809 17.8586 195.809 17.9146ZM195.809 17.9146L195.797 16.7986L196.769 16.2946L204.149 16.0426C204.157 16.2426 204.173 16.4706 204.197 16.7266C204.221 16.9826 204.249 17.1866 204.281 17.3386C203.129 17.3946 202.129 17.4426 201.281 17.4826C200.441 17.5226 199.729 17.5586 199.145 17.5906C198.569 17.6226 198.085 17.6506 197.693 17.6746C197.309 17.6986 196.997 17.7226 196.757 17.7466C196.525 17.7706 196.337 17.7986 196.193 17.8306C196.049 17.8546 195.921 17.8826 195.809 17.9146Z" fill="black"/>
</svg>
