<svg width="120" height="52" viewBox="0 0 120 52" fill="none" xmlns="http://www.w3.org/2000/svg">
<rect x="0.5" y="0.5" width="119" height="51" rx="6.5" fill="#C4B9D1"/>
<rect x="0.5" y="0.5" width="119" height="51" rx="6.5" stroke="black"/>
<path d="M33.5 6.51172C39.9432 6.51172 45.7539 7.51216 49.9346 9.11328C52.0264 9.91444 53.6837 10.8566 54.8096 11.876C55.9355 12.8954 56.4883 13.9519 56.4883 15C56.4883 16.0481 55.9355 17.1046 54.8096 18.124C53.6837 19.1434 52.0264 20.0856 49.9346 20.8867C45.7539 22.4878 39.9432 23.4883 33.5 23.4883C27.0568 23.4883 21.2461 22.4878 17.0654 20.8867C14.9736 20.0856 13.3163 19.1434 12.1904 18.124C11.0645 17.1046 10.5117 16.0481 10.5117 15C10.5117 13.9519 11.0645 12.8954 12.1904 11.876C13.3163 10.8566 14.9736 9.91444 17.0654 9.11328C21.2461 7.51216 27.0568 6.51172 33.5 6.51172Z" fill="white" stroke="black" stroke-width="1.02287"/>
<circle cx="33" cy="15" r="9" fill="black"/>
<path d="M86.5 6.51172C92.9432 6.51172 98.7539 7.51216 102.935 9.11328C105.026 9.91444 106.684 10.8566 107.81 11.876C108.935 12.8954 109.488 13.9519 109.488 15C109.488 16.0481 108.935 17.1046 107.81 18.124C106.684 19.1434 105.026 20.0856 102.935 20.8867C98.7539 22.4878 92.9432 23.4883 86.5 23.4883C80.0568 23.4883 74.2461 22.4878 70.0654 20.8867C67.9736 20.0856 66.3163 19.1434 65.1904 18.124C64.0645 17.1046 63.5117 16.0481 63.5117 15C63.5117 13.9519 64.0645 12.8954 65.1904 11.876C66.3163 10.8566 67.9736 9.91444 70.0654 9.11328C74.2461 7.51216 80.0568 6.51172 86.5 6.51172Z" fill="white" stroke="black" stroke-width="1.02287"/>
<circle cx="86" cy="15" r="9" fill="black"/>
<path d="M59.7422 23.0195C59.8308 22.9933 59.9193 22.995 60.001 23.0166C60.0817 22.9959 60.1692 22.9945 60.2568 23.0205L109.624 37.6445C109.888 37.7232 110.05 38.0043 109.985 38.2725L108.948 42.5527C108.883 42.821 108.615 42.9747 108.351 42.8965L59.999 28.5732L11.6484 42.8965C11.3839 42.9746 11.1168 42.8209 11.0518 42.5527L10.0146 38.2725C9.94961 38.0041 10.1112 37.723 10.376 37.6445L59.7422 23.0195Z" fill="#D9D9D9"/>
<path d="M59.7422 23.0195L59.6004 22.54L59.6002 22.5401L59.7422 23.0195ZM60.001 23.0166L59.8733 23.5C59.9558 23.5218 60.0425 23.5221 60.1251 23.5009L60.001 23.0166ZM60.2568 23.0205L60.3988 22.5411L60.3988 22.5411L60.2568 23.0205ZM109.624 37.6445L109.767 37.1653L109.766 37.1651L109.624 37.6445ZM109.985 38.2725L109.499 38.1547L109.499 38.1547L109.985 38.2725ZM108.948 42.5527L109.434 42.6705L109.434 42.6705L108.948 42.5527ZM108.351 42.8965L108.209 43.3759L108.209 43.376L108.351 42.8965ZM59.999 28.5732L60.141 28.0938C60.0484 28.0664 59.9497 28.0664 59.857 28.0938L59.999 28.5732ZM11.6484 42.8965L11.79 43.376L11.7905 43.3759L11.6484 42.8965ZM11.0518 42.5527L10.5658 42.6705L10.5659 42.6707L11.0518 42.5527ZM10.0146 38.2725L10.5006 38.1547L10.5006 38.1547L10.0146 38.2725ZM10.376 37.6445L10.234 37.1651L10.2339 37.1651L10.376 37.6445ZM59.7422 23.0195L59.8839 23.499C59.8816 23.4997 59.8787 23.5001 59.876 23.5002C59.8734 23.5002 59.8725 23.4998 59.8733 23.5L60.001 23.0166L60.1287 22.5332C59.9661 22.4903 59.7841 22.4858 59.6004 22.54L59.7422 23.0195ZM60.001 23.0166L60.1251 23.5009C60.126 23.5007 60.1251 23.5011 60.1226 23.501C60.1199 23.501 60.1171 23.5006 60.1148 23.4999L60.2568 23.0205L60.3988 22.5411C60.2173 22.4873 60.0375 22.4911 59.8768 22.5323L60.001 23.0166ZM60.2568 23.0205L60.1148 23.4999L109.482 38.1239L109.624 37.6445L109.766 37.1651L60.3988 22.5411L60.2568 23.0205ZM109.624 37.6445L109.481 38.1238C109.483 38.1241 109.489 38.1266 109.495 38.1369C109.501 38.1471 109.5 38.1537 109.499 38.1547L109.985 38.2725L110.471 38.3902C110.599 37.863 110.286 37.3198 109.767 37.1653L109.624 37.6445ZM109.985 38.2725L109.499 38.1547L108.462 42.435L108.948 42.5527L109.434 42.6705L110.471 38.3902L109.985 38.2725ZM108.948 42.5527L108.462 42.4349C108.462 42.4356 108.463 42.4331 108.465 42.4295C108.468 42.4262 108.471 42.4232 108.475 42.421C108.479 42.4188 108.483 42.4175 108.487 42.4171C108.491 42.4166 108.493 42.4173 108.492 42.417L108.351 42.8965L108.209 43.376C108.747 43.5349 109.302 43.2177 109.434 42.6705L108.948 42.5527ZM108.351 42.8965L108.493 42.4171L60.141 28.0938L59.999 28.5732L59.857 29.0526L108.209 43.3759L108.351 42.8965ZM59.999 28.5732L59.857 28.0938L11.5064 42.4171L11.6484 42.8965L11.7905 43.3759L60.141 29.0526L59.999 28.5732ZM11.6484 42.8965L11.5068 42.417C11.5059 42.4172 11.5081 42.4165 11.5125 42.417C11.5166 42.4175 11.5209 42.4189 11.5249 42.4212C11.5288 42.4235 11.5322 42.4265 11.5347 42.4298C11.5374 42.4334 11.5379 42.4357 11.5376 42.4348L11.0518 42.5527L10.5659 42.6707C10.6984 43.2167 11.2516 43.535 11.79 43.376L11.6484 42.8965ZM11.0518 42.5527L11.5377 42.435L10.5006 38.1547L10.0146 38.2725L9.52871 38.3902L10.5658 42.6705L11.0518 42.5527ZM10.0146 38.2725L10.5006 38.1547C10.5002 38.1533 10.4993 38.1467 10.505 38.1366C10.5108 38.1266 10.5169 38.1243 10.518 38.1239L10.376 37.6445L10.2339 37.1651C9.71343 37.3194 9.40103 37.8634 9.52872 38.3902L10.0146 38.2725ZM10.376 37.6445L10.518 38.1239L59.8842 23.4989L59.7422 23.0195L59.6002 22.5401L10.234 37.1651L10.376 37.6445Z" fill="black"/>
</svg>
