<svg width="120" height="52" viewBox="0 0 120 52" fill="none" xmlns="http://www.w3.org/2000/svg">
<rect x="0.5" y="0.5" width="119" height="51" rx="6.5" fill="#6F2BBC"/>
<rect x="0.5" y="0.5" width="119" height="51" rx="6.5" stroke="black"/>
<path d="M33.5 6.51172C39.9432 6.51172 45.7539 7.51216 49.9346 9.11328C52.0264 9.91444 53.6837 10.8566 54.8096 11.876C55.9355 12.8954 56.4883 13.9519 56.4883 15C56.4883 16.0481 55.9355 17.1046 54.8096 18.124C53.6837 19.1434 52.0264 20.0856 49.9346 20.8867C45.7539 22.4878 39.9432 23.4883 33.5 23.4883C27.0568 23.4883 21.2461 22.4878 17.0654 20.8867C14.9736 20.0856 13.3163 19.1434 12.1904 18.124C11.0645 17.1046 10.5117 16.0481 10.5117 15C10.5117 13.9519 11.0645 12.8954 12.1904 11.876C13.3163 10.8566 14.9736 9.91444 17.0654 9.11328C21.2461 7.51216 27.0568 6.51172 33.5 6.51172Z" fill="white" stroke="black" stroke-width="1.02287"/>
<circle cx="33" cy="15" r="9" fill="black"/>
<path d="M86.5 6.51172C92.9432 6.51172 98.7539 7.51216 102.935 9.11328C105.026 9.91444 106.684 10.8566 107.81 11.876C108.935 12.8954 109.488 13.9519 109.488 15C109.488 16.0481 108.935 17.1046 107.81 18.124C106.684 19.1434 105.026 20.0856 102.935 20.8867C98.7539 22.4878 92.9432 23.4883 86.5 23.4883C80.0568 23.4883 74.2461 22.4878 70.0654 20.8867C67.9736 20.0856 66.3163 19.1434 65.1904 18.124C64.0645 17.1046 63.5117 16.0481 63.5117 15C63.5117 13.9519 64.0645 12.8954 65.1904 11.876C66.3163 10.8566 67.9736 9.91444 70.0654 9.11328C74.2461 7.51216 80.0568 6.51172 86.5 6.51172Z" fill="white" stroke="black" stroke-width="1.02287"/>
<circle cx="86" cy="15" r="9" fill="black"/>
<path d="M60.2568 23.0195L109.623 37.6445C109.888 37.7231 110.05 38.0042 109.985 38.2725L108.947 42.5527C108.882 42.8208 108.615 42.9746 108.351 42.8965L59.999 28.5732L11.6484 42.8965C11.3839 42.9747 11.1169 42.8208 11.0518 42.5527L10.0137 38.2725C9.94863 38.0041 10.1112 37.723 10.376 37.6445L59.7422 23.0195C59.8301 22.9935 59.9179 22.9947 59.999 23.0156C60.0803 22.9944 60.1686 22.9934 60.2568 23.0195Z" fill="#D9D9D9"/>
<path d="M60.2568 23.0195L60.3989 22.5401L60.3988 22.5401L60.2568 23.0195ZM109.623 37.6445L109.765 37.1652L109.765 37.1651L109.623 37.6445ZM109.985 38.2725L110.471 38.3903L110.471 38.3902L109.985 38.2725ZM108.947 42.5527L109.433 42.6708L109.433 42.6706L108.947 42.5527ZM108.351 42.8965L108.209 43.3759L108.209 43.376L108.351 42.8965ZM59.999 28.5732L60.141 28.0938C60.0484 28.0664 59.9497 28.0664 59.857 28.0938L59.999 28.5732ZM11.6484 42.8965L11.7902 43.376L11.7905 43.3759L11.6484 42.8965ZM11.0518 42.5527L10.5658 42.6706L10.5659 42.6709L11.0518 42.5527ZM10.0137 38.2725L9.52774 38.3902L9.52776 38.3903L10.0137 38.2725ZM10.376 37.6445L10.518 38.1239L10.518 38.1239L10.376 37.6445ZM59.7422 23.0195L59.6004 22.54L59.6002 22.5401L59.7422 23.0195ZM59.999 23.0156L59.8741 23.4998C59.9565 23.521 60.043 23.5209 60.1254 23.4994L59.999 23.0156ZM60.2568 23.0195L60.1148 23.4989L109.481 38.1239L109.623 37.6445L109.765 37.1651L60.3989 22.5401L60.2568 23.0195ZM109.623 37.6445L109.481 38.1239C109.482 38.1243 109.489 38.127 109.495 38.1374C109.501 38.1478 109.5 38.1541 109.499 38.1547L109.985 38.2725L110.471 38.3902C110.599 37.8618 110.284 37.3191 109.765 37.1652L109.623 37.6445ZM109.985 38.2725L109.499 38.1546L108.461 42.4349L108.947 42.5527L109.433 42.6706L110.471 38.3903L109.985 38.2725ZM108.947 42.5527L108.461 42.4346C108.461 42.4356 108.462 42.4333 108.464 42.4297C108.467 42.4265 108.47 42.4235 108.474 42.4212C108.478 42.4189 108.482 42.4175 108.486 42.417C108.491 42.4165 108.493 42.4172 108.492 42.417L108.351 42.8965L108.209 43.376C108.748 43.5351 109.301 43.2164 109.433 42.6708L108.947 42.5527ZM108.351 42.8965L108.493 42.4171L60.141 28.0938L59.999 28.5732L59.857 29.0526L108.209 43.3759L108.351 42.8965ZM59.999 28.5732L59.857 28.0938L11.5064 42.4171L11.6484 42.8965L11.7905 43.3759L60.141 29.0526L59.999 28.5732ZM11.6484 42.8965L11.5066 42.417C11.5058 42.4173 11.5081 42.4165 11.5125 42.4171C11.5167 42.4176 11.521 42.419 11.525 42.4213C11.529 42.4236 11.5323 42.4266 11.5347 42.4298C11.5374 42.4333 11.5378 42.4356 11.5376 42.4346L11.0518 42.5527L10.5659 42.6709C10.6985 43.2162 11.2512 43.5354 11.7902 43.376L11.6484 42.8965ZM11.0518 42.5527L11.5377 42.4349L10.4996 38.1546L10.0137 38.2725L9.52776 38.3903L10.5658 42.6706L11.0518 42.5527ZM10.0137 38.2725L10.4996 38.1547C10.4994 38.1539 10.4982 38.1475 10.5041 38.1373C10.5101 38.127 10.5165 38.1244 10.518 38.1239L10.376 37.6445L10.234 37.1651C9.71477 37.3189 9.39971 37.862 9.52774 38.3902L10.0137 38.2725ZM10.376 37.6445L10.518 38.1239L59.8842 23.4989L59.7422 23.0195L59.6002 22.5401L10.234 37.1651L10.376 37.6445ZM59.7422 23.0195L59.8839 23.499C59.8822 23.4995 59.8797 23.5 59.8772 23.5C59.8748 23.5 59.8737 23.4997 59.8741 23.4998L59.999 23.0156L60.124 22.5315C59.9616 22.4896 59.7813 22.4866 59.6004 22.54L59.7422 23.0195ZM59.999 23.0156L60.1254 23.4994C60.1251 23.4995 60.1236 23.4998 60.1211 23.4998C60.1185 23.4998 60.1162 23.4994 60.1148 23.4989L60.2568 23.0195L60.3988 22.5401C60.2181 22.4866 60.0368 22.489 59.8726 22.5319L59.999 23.0156Z" fill="black"/>
</svg>
