<svg width="120" height="52" viewBox="0 0 120 52" fill="none" xmlns="http://www.w3.org/2000/svg">
<rect x="0.5" y="0.5" width="119" height="51" rx="6.5" fill="#E3AEAE"/>
<rect x="0.5" y="0.5" width="119" height="51" rx="6.5" stroke="black"/>
<path d="M35.6969 5.80095C41.9206 7.46857 47.2743 9.93883 50.8982 12.5674C52.7114 13.8827 54.0684 15.2217 54.892 16.4977C55.7157 17.7739 55.9763 18.9374 55.705 19.9498C55.4337 20.9622 54.6263 21.8396 53.2749 22.5329C51.9236 23.2261 50.0789 23.7073 47.851 23.9397C43.3983 24.4042 37.5267 23.8667 31.3031 22.1991C25.0794 20.5314 19.7257 18.0612 16.1018 15.4326C14.2886 14.1173 12.9317 12.7783 12.108 11.5023C11.2843 10.2261 11.0238 9.0626 11.295 8.0502C11.5663 7.03779 12.3737 6.16042 13.7251 5.4671C15.0764 4.77387 16.9211 4.29274 19.149 4.06029C23.6017 3.59577 29.4733 4.13333 35.6969 5.80095Z" fill="#FF9933" stroke="black" stroke-width="1.02287"/>
<path d="M84.303 5.80095C90.5267 4.13333 96.3983 3.59577 100.851 4.06029C103.079 4.29274 104.924 4.77387 106.275 5.4671C107.626 6.16042 108.434 7.03779 108.705 8.0502C108.976 9.0626 108.716 10.2261 107.892 11.5023C107.068 12.7783 105.711 14.1173 103.898 15.4326C100.274 18.0612 94.9205 20.5314 88.6969 22.1991C82.4732 23.8667 76.6016 24.4042 72.149 23.9397C69.921 23.7073 68.0764 23.2261 66.725 22.5329C65.3737 21.8396 64.5662 20.9622 64.295 19.9498C64.0237 18.9374 64.2842 17.7739 65.1079 16.4977C65.9316 15.2217 67.2886 13.8827 69.1018 12.5674C72.7256 9.93883 78.0794 7.46857 84.303 5.80095Z" fill="#FF9933" stroke="black" stroke-width="1.02287"/>
<path d="M60.2578 23.0205L109.624 37.6445C109.889 37.7231 110.05 38.0042 109.985 38.2725L108.948 42.5527C108.883 42.8209 108.616 42.9745 108.352 42.8965L60 28.5732L11.6494 42.8965C11.3847 42.9749 11.1168 42.8211 11.0518 42.5527L10.0146 38.2725C9.94964 38.0042 10.1114 37.7231 10.376 37.6445L59.7432 23.0205C59.8308 22.9946 59.9183 22.9959 59.999 23.0166C60.0806 22.9952 60.1692 22.9943 60.2578 23.0205Z" fill="#D9D9D9"/>
<path d="M60.2578 23.0205L60.1158 23.4999V23.4999L60.2578 23.0205ZM109.624 37.6445L109.766 37.1652L109.766 37.1651L109.624 37.6445ZM109.985 38.2725L109.499 38.1547L109.499 38.1547L109.985 38.2725ZM108.948 42.5527L109.434 42.6706L109.434 42.6705L108.948 42.5527ZM108.352 42.8965L108.21 43.3759L108.21 43.3761L108.352 42.8965ZM60 28.5732L60.142 28.0938C60.0493 28.0664 59.9507 28.0664 59.858 28.0938L60 28.5732ZM11.6494 42.8965L11.5074 42.4171H11.5074L11.6494 42.8965ZM11.0518 42.5527L10.5658 42.6705L10.5658 42.6705L11.0518 42.5527ZM10.0146 38.2725L10.5006 38.1547L10.5006 38.1547L10.0146 38.2725ZM10.376 37.6445L10.234 37.1651L10.2336 37.1652L10.376 37.6445ZM59.7432 23.0205L59.6014 22.541L59.6012 22.5411L59.7432 23.0205ZM59.999 23.0166L59.8748 23.5009C59.9571 23.522 60.0434 23.5218 60.1256 23.5003L59.999 23.0166ZM60.2578 23.0205L60.1158 23.4999L109.482 38.1239L109.624 37.6445L109.766 37.1651L60.3998 22.5411L60.2578 23.0205ZM109.624 37.6445L109.482 38.1239C109.483 38.1242 109.489 38.1266 109.495 38.1367C109.501 38.1469 109.5 38.1534 109.499 38.1547L109.985 38.2725L110.471 38.3902C110.599 37.8632 110.286 37.3196 109.766 37.1652L109.624 37.6445ZM109.985 38.2725L109.499 38.1547L108.462 42.435L108.948 42.5527L109.434 42.6705L110.471 38.3902L109.985 38.2725ZM108.948 42.5527L108.462 42.4349C108.462 42.4358 108.463 42.4334 108.465 42.4298C108.468 42.4264 108.471 42.4234 108.475 42.4211C108.479 42.4188 108.483 42.4175 108.487 42.417C108.492 42.4165 108.494 42.4172 108.493 42.4169L108.352 42.8965L108.21 43.3761C108.748 43.5347 109.302 43.2169 109.434 42.6706L108.948 42.5527ZM108.352 42.8965L108.494 42.4171L60.142 28.0938L60 28.5732L59.858 29.0526L108.21 43.3759L108.352 42.8965ZM60 28.5732L59.858 28.0938L11.5074 42.4171L11.6494 42.8965L11.7914 43.3759L60.142 29.0526L60 28.5732ZM11.6494 42.8965L11.5074 42.4171C11.5065 42.4174 11.5086 42.4166 11.5129 42.4171C11.5169 42.4176 11.521 42.4189 11.5249 42.4212C11.5288 42.4234 11.5321 42.4264 11.5346 42.4297C11.5373 42.4333 11.5379 42.4357 11.5377 42.4349L11.0518 42.5527L10.5658 42.6705C10.6984 43.2175 11.2531 43.5354 11.7914 43.3759L11.6494 42.8965ZM11.0518 42.5527L11.5377 42.435L10.5006 38.1547L10.0146 38.2725L9.52871 38.3902L10.5658 42.6705L11.0518 42.5527ZM10.0146 38.2725L10.5006 38.1547C10.5003 38.1535 10.4992 38.147 10.5051 38.1368C10.511 38.1266 10.5172 38.1242 10.5184 38.1238L10.376 37.6445L10.2336 37.1652C9.71393 37.3196 9.40097 37.8632 9.52872 38.3902L10.0146 38.2725ZM10.376 37.6445L10.518 38.1239L59.8852 23.4999L59.7432 23.0205L59.6012 22.5411L10.234 37.1651L10.376 37.6445ZM59.7432 23.0205L59.8849 23.5C59.8828 23.5006 59.8801 23.501 59.8775 23.5011C59.8751 23.5011 59.8741 23.5007 59.8748 23.5009L59.999 23.0166L60.1232 22.5323C59.9623 22.491 59.7826 22.4875 59.6014 22.541L59.7432 23.0205ZM59.999 23.0166L60.1256 23.5003C60.1253 23.5004 60.1239 23.5007 60.1216 23.5007C60.1191 23.5007 60.117 23.5003 60.1158 23.4999L60.2578 23.0205L60.3998 22.5411C60.2188 22.4875 60.0371 22.4898 59.8724 22.5329L59.999 23.0166Z" fill="black"/>
</svg>
