<svg width="72" height="32" viewBox="0 0 72 32" fill="none" xmlns="http://www.w3.org/2000/svg">
<path d="M9.648 3.608V2.228H6.492V3.608H9.648ZM10.74 1.328V4.508H5.448V1.328H10.74ZM4.644 6.008L4.788 7.052C4.296 7.196 3.792 7.328 3.288 7.472V10.688C3.288 11.276 3.168 11.564 2.82 11.732C2.472 11.9 1.932 11.936 1.116 11.924C1.08 11.66 0.924 11.204 0.792 10.916C1.308 10.94 1.824 10.94 1.968 10.928C2.136 10.928 2.196 10.868 2.196 10.7V7.784L0.768 8.18L0.468 7.112C0.96 7.004 1.548 6.848 2.196 6.68V4.316H0.624V3.284H2.196V0.943999H3.288V3.284H4.764V4.316H3.288V6.392C3.732 6.272 4.2 6.14 4.644 6.008ZM6.432 7.58L6.852 6.8C7.788 6.968 8.988 7.304 9.636 7.628L9.192 8.48C8.568 8.156 7.368 7.772 6.432 7.58ZM6.264 6.236V7.412C6.264 8 6.228 8.696 6.108 9.392C7.104 9.224 8.532 8.912 9.96 8.6V6.236H6.264ZM11.088 5.288V10.736C11.088 11.3 10.968 11.6 10.596 11.768C10.224 11.936 9.636 11.948 8.784 11.948C8.748 11.648 8.592 11.204 8.46 10.916C9.012 10.94 9.576 10.94 9.732 10.928C9.9 10.928 9.96 10.88 9.96 10.724V9.548C8.736 9.872 7.488 10.196 6.492 10.448L6.108 9.404C5.964 10.352 5.64 11.3 5.04 12.044C4.86 11.852 4.38 11.516 4.116 11.396C5.064 10.232 5.172 8.6 5.172 7.4V5.288H11.088ZM17.784 5.432V5.66C18.48 4.472 18.876 2.744 19.092 0.956L20.184 1.1C20.088 1.784 19.968 2.456 19.824 3.092H22.524L22.692 3.044L23.448 3.272C23.232 4.388 22.884 5.66 22.572 6.488L21.66 6.212C21.852 5.66 22.056 4.88 22.2 4.1H19.572C19.296 5.036 18.972 5.852 18.576 6.512C18.408 6.356 18.048 6.104 17.784 5.936V6.344H13.02V5.432H17.784ZM14.868 3.764V2.912H12.636V2H14.868V1.004H15.912V2H18.156V2.912H15.912V3.764H17.904V4.676H12.912V3.764H14.868ZM13.38 8.36L14.304 8.588C14.016 9.476 13.608 10.472 13.248 11.132C13.044 11 12.624 10.808 12.372 10.724C12.768 10.1 13.14 9.176 13.38 8.36ZM18.276 8.036H15.936V11.936H14.88V8.036H12.48V7.112H18.276V8.036ZM16.464 8.684L17.304 8.348C17.628 8.936 18 9.728 18.168 10.196L17.268 10.604C17.124 10.1 16.776 9.296 16.464 8.684ZM21.06 4.94V5.528C21.06 5.876 21.048 6.248 21.024 6.668C21.42 8.588 22.26 10.256 23.64 10.988C23.388 11.216 23.052 11.636 22.884 11.924C21.84 11.276 21.12 10.16 20.64 8.768C20.292 9.872 19.692 11 18.612 11.972C18.42 11.732 18.036 11.372 17.76 11.216C19.824 9.404 20.004 7.064 20.004 5.492V4.94H21.06ZM32.508 6.488H27.636C28.2 7.508 29.016 8.36 30.048 9.032C31.08 8.372 31.932 7.544 32.508 6.488ZM33.36 5.348L34.14 5.804C33.492 7.424 32.448 8.672 31.128 9.62C32.364 10.208 33.84 10.592 35.532 10.796C35.292 11.06 34.98 11.552 34.836 11.876C32.928 11.6 31.332 11.096 30 10.328C28.524 11.12 26.82 11.624 25.02 11.948C24.936 11.648 24.636 11.132 24.42 10.88C26.076 10.64 27.612 10.244 28.944 9.632C27.924 8.84 27.096 7.844 26.472 6.644L26.892 6.488H25.5V5.396H29.388V3.752H24.948V2.648H29.388V0.943999H30.54V2.648H35.016V3.752H30.54V5.396H33.156L33.36 5.348ZM40.092 6.056L40.236 7.076L39.048 7.448V10.604C39.048 11.156 38.94 11.456 38.628 11.624C38.304 11.804 37.812 11.84 37.068 11.84C37.032 11.576 36.9 11.096 36.756 10.808C37.236 10.82 37.692 10.82 37.824 10.82C37.968 10.82 38.028 10.772 38.028 10.604V7.76L36.624 8.204L36.372 7.124C36.828 7.004 37.404 6.848 38.028 6.656V4.304H36.552V3.26H38.028V0.943999H39.048V3.26H40.176V4.304H39.048V6.368L40.092 6.056ZM41.256 8.624L42.132 8.156C42.588 8.792 43.188 9.644 43.476 10.196L42.54 10.736C42.288 10.196 41.724 9.284 41.256 8.624ZM46.02 5.948V6.896H47.436V7.916H46.02V10.712C46.02 11.312 45.9 11.612 45.516 11.78C45.12 11.948 44.52 11.96 43.656 11.96C43.608 11.648 43.464 11.192 43.32 10.904C43.944 10.928 44.556 10.928 44.736 10.916C44.916 10.904 44.964 10.856 44.964 10.7V7.916H40.488V6.896H44.964V5.948H46.02ZM44.484 2.396H47.496V3.428H44.484V4.652H46.956V5.672H40.956V4.652H43.416V3.428H40.344V2.396H43.416V0.98H44.484V2.396ZM50.928 7.22H53.484C53.508 7.028 53.508 6.836 53.508 6.632V6.2H50.928V7.22ZM50.928 4.316V5.336H53.508V4.316H50.928ZM57.336 4.316H54.672V5.336H57.336V4.316ZM57.336 7.22V6.2H54.672V6.644C54.672 6.848 54.672 7.028 54.648 7.22H57.336ZM58.44 8.132H54.516C54.372 8.816 54.072 9.452 53.52 10.016C55.056 10.616 57.072 10.748 59.616 10.772C59.412 11.036 59.208 11.504 59.148 11.876C56.46 11.78 54.276 11.576 52.596 10.748C51.816 11.24 50.724 11.648 49.26 11.96C49.128 11.708 48.828 11.228 48.576 10.976C49.884 10.748 50.832 10.448 51.552 10.1C51.012 9.692 50.556 9.176 50.16 8.552L51.132 8.168C51.504 8.708 51.948 9.14 52.476 9.488C52.932 9.08 53.184 8.624 53.328 8.132H49.872V3.404H53.508V2.54H48.816V1.532H59.196V2.54H54.672V3.404H58.44V8.132ZM67.92 2.936H64.704C64.524 3.08 64.332 3.212 64.14 3.332C64.716 3.74 65.316 4.232 65.712 4.628C66.576 4.16 67.344 3.584 67.92 2.936ZM68.916 1.892L69.648 2.336C68.124 5.036 64.68 6.572 61.452 7.22C61.344 6.944 61.116 6.476 60.924 6.236C62.208 6.02 63.516 5.648 64.716 5.132C64.344 4.724 63.804 4.256 63.288 3.884C62.892 4.1 62.472 4.328 62.028 4.532C61.86 4.268 61.524 3.908 61.272 3.728C63.18 2.96 64.62 1.88 65.388 0.908L66.6 1.184C66.384 1.448 66.132 1.7 65.856 1.952H68.724L68.916 1.892ZM69.66 7.22H66.648C66.36 7.448 66.036 7.664 65.712 7.88C66.276 8.3 66.912 8.828 67.32 9.248C68.268 8.72 69.084 8.06 69.66 7.22ZM70.56 6.176L71.328 6.62C69.66 10.184 65.664 11.516 61.296 11.984C61.224 11.66 61.032 11.168 60.852 10.904C62.808 10.736 64.668 10.388 66.264 9.752C65.868 9.332 65.292 8.84 64.764 8.42C64.236 8.696 63.66 8.96 63.036 9.212C62.892 8.936 62.58 8.54 62.34 8.348C64.764 7.52 66.444 6.272 67.332 5.096L68.556 5.372C68.316 5.672 68.076 5.948 67.8 6.224H70.368L70.56 6.176ZM8.124 23.156L9.012 23.324C8.724 24.404 8.28 25.34 7.728 26.156C7.932 26.672 8.184 27.008 8.472 27.056C8.628 27.092 8.724 26.612 8.784 25.88C8.976 26.072 9.312 26.3 9.516 26.396C9.36 27.764 8.88 28.22 8.172 27.968C7.728 27.86 7.38 27.5 7.092 26.96C6.648 27.44 6.156 27.872 5.604 28.22C5.484 28.028 5.16 27.68 4.968 27.524C5.304 27.332 5.604 27.116 5.892 26.876C4.728 27.08 3.564 27.284 2.64 27.44L2.484 26.6C3.384 26.492 4.68 26.288 5.988 26.096L6.036 26.756C6.276 26.54 6.504 26.288 6.72 26.036C6.444 25.124 6.252 23.972 6.12 22.712H2.604V21.884H6.048C6.012 21.5 5.988 21.116 5.964 20.732H6.912C6.924 21.116 6.948 21.5 6.972 21.884H8.628C8.376 21.608 7.884 21.272 7.464 21.056L7.98 20.528C8.412 20.732 8.928 21.068 9.192 21.344L8.7 21.884H9.384V22.712H7.044C7.128 23.564 7.248 24.356 7.392 25.016C7.704 24.452 7.944 23.828 8.124 23.156ZM4.872 25.028V23.984H3.732V25.028H4.872ZM2.976 23.348H5.652V25.664H2.976V23.348ZM2.052 28.46H9.888V20.504H2.052V28.46ZM0.996 19.484H10.992V30.008H9.888V29.48H2.052V30.008H0.996V19.484ZM20.328 26.708H15.732V27.368H20.328V26.708ZM15.732 28.808H20.328V28.136H15.732V28.808ZM14.628 29.936V25.94H21.468V29.888H20.328V29.564H15.732V29.936H14.628ZM14.196 22.34H22.008C21.36 22.112 20.7 21.836 20.088 21.488V21.836H15.936V21.548C15.384 21.86 14.796 22.112 14.196 22.34ZM21.072 24.728V23.072H18.408V24.728H19.752L19.008 24.5C19.224 24.116 19.476 23.504 19.608 23.096L20.544 23.36C20.28 23.876 20.016 24.38 19.8 24.728H21.072ZM15.48 23.384L16.26 23.144C16.524 23.552 16.788 24.104 16.872 24.464L16.08 24.728H17.496V23.072H14.892V24.728H16.044C15.96 24.356 15.732 23.804 15.48 23.384ZM16.752 21.068H19.38C18.888 20.768 18.444 20.42 18.06 20.06C17.676 20.42 17.22 20.768 16.752 21.068ZM17.844 18.872L18.828 19.22C18.768 19.292 18.72 19.376 18.648 19.448C19.764 20.48 21.792 21.392 23.664 21.788C23.436 21.98 23.124 22.376 22.956 22.64C22.668 22.556 22.356 22.46 22.056 22.352V25.46H13.944V22.436C13.644 22.544 13.356 22.64 13.056 22.724C12.96 22.52 12.648 22.064 12.456 21.872C14.628 21.32 16.752 20.276 17.844 18.872ZM35.412 21.596H31.74C31.452 22.196 31.14 22.736 30.804 23.168C30.612 23 30.18 22.676 29.928 22.532C30.684 21.668 31.224 20.336 31.512 18.932L32.568 19.136C32.448 19.652 32.292 20.156 32.124 20.648H35.412V21.596ZM35.184 24.656H31.14V23.66H35.184V24.656ZM25.98 23.372V24.284H27.216V23.372H25.98ZM27.216 20.24H25.98V21.008H27.216V20.24ZM28.884 22.628V21.764H25.98V22.628H28.884ZM30.252 24.284V25.148H24.96V19.364H30.108V20.24H28.128V21.008H29.82V23.372H28.128V24.284H30.252ZM27.036 26.684V28.64H28.284V26.684H27.036ZM30.588 26.684H29.316V28.64H30.588V26.684ZM32.88 26.684H31.608V28.64H32.88V26.684ZM33.972 28.64H35.424V29.612H24.588V28.64H25.992V25.808H33.972V28.64ZM38.976 24.404V22.016H36.672V21.14H38.844V18.92H39.912V19.58H41.868V20.372H39.912V21.14H42.252V22.016H40.008V24.404H38.976ZM37.68 22.16L38.556 22.376C38.28 23.096 37.848 23.852 37.416 24.344C37.236 24.2 36.876 23.972 36.648 23.852C37.08 23.396 37.464 22.784 37.68 22.16ZM44.76 25.436H39.216V26.084H44.76V25.436ZM39.216 27.416H44.76V26.756H39.216V27.416ZM39.216 28.748H44.76V28.088H39.216V28.748ZM38.172 29.924V24.608H45.864V29.9H44.76V29.576H39.216V29.924H38.172ZM45.588 20.348H43.38C43.656 20.948 44.04 21.5 44.508 21.992C44.952 21.512 45.312 20.96 45.588 20.348ZM46.212 19.424L46.86 19.676C46.536 20.876 45.972 21.86 45.24 22.64C45.852 23.096 46.572 23.456 47.34 23.684C47.124 23.876 46.812 24.296 46.68 24.548C45.864 24.272 45.132 23.84 44.496 23.312C43.896 23.804 43.188 24.2 42.444 24.476C42.312 24.26 42.084 23.888 41.892 23.708L41.328 23.96C41.16 23.552 40.74 22.928 40.368 22.484L41.16 22.148C41.544 22.568 41.976 23.168 42.168 23.576C42.756 23.348 43.308 23.036 43.812 22.64C43.236 21.992 42.768 21.236 42.42 20.408L42.624 20.348H42.18V19.46H46.032L46.212 19.424ZM54.588 27.956H59.388V29.072H48.648V27.956H53.34V21.38H49.284V20.228H58.764V21.38H54.588V27.956ZM63.288 18.98L64.356 19.316C64.032 20.156 63.624 21.02 63.168 21.824V29.924H62.04V23.588C61.728 24.02 61.392 24.416 61.056 24.764C60.948 24.488 60.624 23.864 60.432 23.612C61.572 22.484 62.64 20.732 63.288 18.98ZM71.532 21.968H67.98V23.492H71.244V24.512H67.98V26.108H71.412V27.152H67.98V29.936H66.84V21.968H66.168C65.664 22.904 65.112 23.744 64.536 24.38C64.356 24.188 63.924 23.792 63.672 23.624C64.728 22.52 65.688 20.792 66.264 19.064L67.332 19.352C67.14 19.868 66.936 20.396 66.708 20.9H71.532V21.968Z" fill="black"/>
<path d="M0 12.8H72V13.4H0V12.8ZM0 30.8H72V31.4H0V30.8Z" fill="black"/>
</svg>
