<svg width="380" height="189" viewBox="0 0 380 189" fill="none" xmlns="http://www.w3.org/2000/svg">
<path d="M264.356 187.348L135.003 187.185L121.332 9.8871L250.881 1.00004L264.356 187.348Z" fill="#DBDBDB" stroke="black" stroke-linecap="round" stroke-linejoin="round"/>
<path d="M77.3272 166.169C85.4814 153.364 92.1959 136.464 96.3606 121.953C97.4081 118.304 98.3387 114.589 99.2693 110.94C99.6782 109.343 100.363 107.06 101.823 103.199L102.32 101.651C103.701 97.7134 103.943 96.6406 104.64 94.6779C108.475 83.9053 113.157 72.0437 119.73 62.6121C123.227 57.5936 134.286 60.2512 132.416 68.1752C131.556 71.8324 122.071 92.9346 122.58 94.6332C123.323 94.1984 126.941 83.8687 127.63 82.2067C128.372 89.1676 128.527 98.4936 128.89 105.65L131.143 149.589C131.273 152.174 131.669 165.73 132.212 167.16C130.108 167.932 126.282 170.728 124.504 172.118C127.137 157.777 122.008 139.105 103.664 139.316C96.5443 139.398 90.8939 143.961 87.618 149.861C84.0584 156.274 83.4533 162.865 83.7454 170.066C81.5379 168.655 79.6141 167.453 77.3189 166.173L77.3272 166.169Z" fill="#F7DAC6" stroke="black" stroke-linecap="round" stroke-linejoin="round"/>
<path d="M49.5687 43.4807C49.7547 43.4953 50.0001 43.5772 50.3187 43.8049C50.3949 44.0597 50.3565 44.4424 50.1283 44.9856C49.8773 45.5829 49.445 46.2623 48.931 46.9641C48.4198 47.6621 47.8454 48.3582 47.3206 48.9924C46.8161 49.6022 46.3442 50.1719 46.0453 50.6077L27.6937 73.8694C24.7235 77.6019 20.364 82.7443 17.641 86.5911L17.263 87.1243L17.8763 87.3489C19.0227 87.7695 19.8668 88.2296 20.6019 88.8049C21.3403 89.3829 21.9876 90.0924 22.7298 91.0374L23.096 91.5032L23.4935 91.0637C26.3802 87.8733 30.0042 83.126 32.7581 79.7375L51.0814 57.2502C51.4856 56.7643 52.0457 56.0346 52.6742 55.2268C53.3089 54.4109 54.0229 53.5057 54.7464 52.6536C55.4717 51.7993 56.197 51.0103 56.8548 50.4241C57.1835 50.1312 57.486 49.8971 57.7552 49.7317C57.9745 49.597 58.1524 49.5214 58.2894 49.4866C58.336 49.5024 58.3777 49.5171 58.4154 49.5295C58.4878 49.5535 58.5372 49.5698 58.5785 49.5842C58.6066 49.594 58.6241 49.6016 58.6341 49.6057C58.6435 49.6173 58.6601 49.6397 58.6888 49.679C58.7352 49.7423 58.8034 49.8344 58.8988 49.9602C58.9496 50.3903 58.8914 50.6514 58.7708 50.8948C58.6929 51.0521 58.5911 51.2029 58.4574 51.3821L57.9505 52.0403C56.924 53.3838 55.7749 54.7103 54.6214 56.0588C53.4755 57.3985 52.3264 58.7575 51.3197 60.1497L34.3031 81.1555C31.2895 84.857 26.6872 90.1409 24.0404 93.9192L23.931 94.0754L23.9535 94.2649C24.1331 95.7822 23.9082 96.6034 23.472 98.177L23.4232 98.3508L23.4974 98.5149L48.181 153.585V153.586C50.9207 159.663 53.5854 165.896 56.389 171.967L53.974 171.956C51.0712 164.976 47.948 158.125 44.8197 151.267L41.6527 144.3L22.3734 101.118L22.0833 100.467L21.5697 100.962C20.6006 101.896 19.7272 102.527 18.7718 102.971C17.8148 103.416 16.7494 103.685 15.3802 103.862L14.7318 103.946L14.9828 104.549L42.9915 171.952C42.6606 171.961 42.2914 171.969 41.9173 171.964C41.5798 171.96 41.2615 171.945 40.9974 171.912C40.8395 171.893 40.7213 171.868 40.6371 171.845C37.3204 163.569 33.8322 155.334 30.3402 147.107C26.8193 138.811 23.2943 130.522 19.9349 122.193C17.4813 116.106 14.9327 109.832 12.2621 103.833L12.1859 103.661L12.016 103.583L11.5394 103.352C6.71782 100.919 5.07027 97.0049 5.71127 93.6311C6.37619 90.1321 9.53142 87.039 14.5843 86.6223L14.7806 86.6057L14.9134 86.4602C18.1295 82.9242 22.7274 76.7739 25.7523 72.9475L45.2484 48.302L45.2474 48.301C46.1176 47.2807 46.8548 46.3147 47.6361 45.2366L47.6351 45.2356C47.8803 44.8986 48.098 44.5853 48.3285 44.2991C48.5577 44.0144 48.7708 43.7964 48.9818 43.6555C49.1838 43.5207 49.3709 43.4652 49.5687 43.4807ZM16.4798 93.1184C15.6043 92.4264 14.4151 92.2549 13.3714 92.6643H13.3705C11.806 93.2815 11.0156 95.0073 11.6195 96.5657C12.2205 98.1158 13.9667 98.8998 15.5511 98.3616H15.5521C16.6112 98.0001 17.3956 97.105 17.5921 96.012L17.5931 96.0129C17.7888 94.9179 17.361 93.8117 16.4798 93.1184Z" fill="#E9808E" stroke="black"/>
<path d="M251.04 129.064C249.709 127.516 243.345 121.359 243.149 120.299L255.246 126.349C254.024 127.117 252.146 128.227 251.04 129.064Z" fill="#EDF2F4"/>
<path d="M40.2577 172.227C40.8628 172.569 42.9118 172.439 43.7381 172.431C47.0431 172.471 50.3357 172.463 53.6408 172.455L57.1712 172.471L57.8097 172.528C56.925 177.782 60.4888 182.358 64.399 185.532C62.4543 185.694 59.4247 185.609 57.3965 185.609L45.0401 185.597C38.1211 185.592 28.3644 185.918 21.6792 185.527C22.1799 178.562 27.413 173.004 34.7075 172.475C36.0262 172.378 39.227 172.743 40.2494 172.227H40.2577Z" fill="#8D99AE" stroke="black" stroke-linecap="round" stroke-linejoin="round"/>
<path d="M79.7893 82.8447C81.3 81.2315 84.0751 78.838 85.7485 77.2979L97.0784 66.8829C102.399 77.814 90.6143 88.5134 79.7852 82.8488L79.7893 82.8447Z" fill="white" stroke="black" stroke-linecap="round" stroke-linejoin="round"/>
<path d="M163.476 167.546H53.3779V185.775H163.476V167.546Z" fill="#2D2D2D"/>
<path d="M163.059 167.952V185.369H53.7952V167.952H163.059ZM163.893 167.14H52.9606V186.182H163.893V167.14Z" fill="black"/>
<path d="M175.24 148.988H59.8378V167.217H175.24V148.988Z" fill="#3E51FF"/>
<path d="M174.827 149.394V166.811H60.2551V149.394H174.823M175.662 148.581H59.4205V167.623H175.657V148.581H175.662Z" fill="black"/>
<path d="M148.808 130.283H40.9839V148.512H148.808V130.283Z" fill="#77D077"/>
<path d="M148.391 130.689V148.106H41.4012V130.689H148.391ZM149.225 129.877H40.5666V148.919H149.225V129.877Z" fill="black"/>
<path d="M107.144 47.3656L106.806 47.2152C96.5818 44.3829 85.5607 41.2173 75.2615 38.6695C71.3055 33.5494 67.5914 28.864 60.6432 27.836C52.2887 26.6006 44.5268 32.3912 43.5211 40.5509C43.2749 42.5299 43.4752 45.0656 44.3432 47.0161C44.4976 47.3574 44.6645 47.6866 44.8607 47.9873C44.8773 47.967 44.894 47.9466 44.9107 47.9263C45.3197 48.5846 45.9164 49.5599 46.5967 50.6977C46.5424 50.7749 46.4882 50.848 46.4423 50.9171C47.3228 52.3963 48.0572 53.5544 48.9252 54.7288C50.0979 56.8459 51.1829 58.9671 51.717 60.4544L54.3252 83.2308C54.4963 84.7912 55.2892 92.7843 55.6439 93.6295L55.8233 93.853C56.6454 95.0761 59.6751 98.5139 60.8143 99.9565C66.9237 94.2837 73.1833 88.871 79.2969 83.121L79.7893 82.8488C81.3 81.2355 84.0751 78.8421 85.7485 77.302L97.0784 66.887L97.5708 66.31C102.457 61.8807 107.453 57.1994 112.231 52.6523C110.687 51.0878 108.709 48.735 107.14 47.3696L107.144 47.3656Z" fill="#DB6676" stroke="black" stroke-linecap="round" stroke-linejoin="round"/>
<path d="M357.679 187.185V150.398C357.679 150.398 326.819 153.811 312.776 149.618C298.734 145.424 290.417 131.088 285.789 127.406C281.161 123.724 269.844 115.967 260.734 111.526C251.624 107.084 240.328 102.297 238.846 107.364C237.365 112.432 235.453 114.585 241.471 118.527C247.489 122.469 258.243 129.064 258.243 129.064L250.898 134.07L264.552 156.42L270.178 169.115L258.806 178.542L251.816 183.597L252 186.182L357.675 187.185H357.679Z" fill="#F7DAC6" stroke="black" stroke-linecap="round" stroke-linejoin="round"/>
<path d="M166.197 28.8803C143.12 46.7276 139.268 79.411 157.596 101.883C173.788 121.737 201.877 126.971 224.119 115.613L262.758 162.991C266.205 167.217 272.515 167.92 276.855 164.567C281.195 161.211 281.917 155.067 278.474 150.841L239.835 103.463C256.235 84.9415 257.358 57.1181 241.166 37.2594C222.838 14.7878 189.274 11.0371 166.197 28.8844V28.8803ZM224.195 99.989C206.939 113.334 181.842 110.53 168.142 93.727C154.437 76.9241 157.317 52.4857 174.572 39.1449C191.828 25.8001 216.925 28.604 230.625 45.4069C244.33 62.2098 241.45 86.6482 224.195 99.989Z" fill="#3E51FF" stroke="black" stroke-linecap="round" stroke-linejoin="round"/>
<path d="M233.425 123.1L218.48 132.991C214.824 135.41 213.874 140.257 216.358 143.816C218.842 147.375 223.82 148.299 227.476 145.88L242.421 135.99C246.077 133.57 247.027 128.723 244.543 125.164C242.059 121.605 237.081 120.681 233.425 123.1Z" fill="#F7DAC6" stroke="black" stroke-linecap="round" stroke-linejoin="round"/>
<path d="M242.316 135.84L227.372 145.73C223.715 148.15 222.765 152.996 225.249 156.556C227.733 160.115 232.711 161.039 236.367 158.619L251.312 148.729C254.968 146.31 255.918 141.463 253.434 137.904C250.95 134.345 245.973 133.421 242.316 135.84Z" fill="#F7DAC6" stroke="black" stroke-linecap="round" stroke-linejoin="round"/>
<path d="M251.208 148.58L236.263 158.47C232.607 160.89 231.657 165.736 234.141 169.295C236.625 172.855 241.602 173.779 245.258 171.359L260.203 161.469C263.859 159.05 264.809 154.203 262.325 150.644C259.841 147.084 254.864 146.161 251.208 148.58Z" fill="#F7DAC6" stroke="black" stroke-linecap="round" stroke-linejoin="round"/>
<path d="M260.1 161.318L245.155 171.208C241.499 173.627 240.549 178.474 243.033 182.033C245.517 185.593 250.494 186.517 254.15 184.097L269.095 174.207C272.751 171.788 273.701 166.941 271.217 163.382C268.733 159.822 263.756 158.898 260.1 161.318Z" fill="#F7DAC6" stroke="black" stroke-linecap="round" stroke-linejoin="round"/>
<path d="M199 58.5C210.014 58.5 219.967 59.7285 227.151 61.7041C230.747 62.6929 233.621 63.8614 235.584 65.1377C237.568 66.4279 238.5 67.744 238.5 69C238.5 70.256 237.568 71.5721 235.584 72.8623C233.621 74.1386 230.747 75.3071 227.151 76.2959C219.967 78.2715 210.014 79.5 199 79.5C187.986 79.5 178.033 78.2715 170.849 76.2959C167.253 75.3071 164.379 74.1386 162.416 72.8623C160.432 71.5721 159.5 70.256 159.5 69C159.5 67.744 160.432 66.4279 162.416 65.1377C164.379 63.8614 167.253 62.6929 170.849 61.7041C178.033 59.7285 187.986 58.5 199 58.5Z" fill="white" stroke="black"/>
<ellipse cx="199.5" cy="69" rx="10.5" ry="11" fill="black"/>
<path d="M367.089 184.388C370.465 184.337 373.849 184.299 377.225 184.291C381.077 184.282 380.714 187.773 377.397 187.807C374.563 187.837 371.721 187.714 368.875 187.718L348.06 187.727H281.174L70.1287 187.786L23.0104 187.858H8.25025C6.38488 187.858 4.4444 188.087 2.59573 187.964C1.86127 187.913 1.06421 187.79 0.496671 187.273C0.187863 186.994 0.00424751 186.553 7.4428e-05 186.129C-0.00409865 185.583 0.166998 185.176 0.567613 184.816C1.61923 183.867 16.9344 184.32 19.576 184.333L21.6876 184.375C28.3728 184.786 38.1295 184.443 45.0485 184.447L57.4049 184.46C59.4331 184.46 62.4669 184.549 64.4074 184.38L91.1109 184.333C92.5923 184.333 101.039 184.231 102.161 184.439L102.95 184.354C120.715 184.575 138.905 184.422 156.728 184.456H175.415C177.928 184.456 182.702 184.592 184.984 184.363L251.507 184.35L258.981 184.375C264.723 184.668 272.439 184.447 278.269 184.447L314.704 184.477L348.398 184.443C353.502 184.447 362.19 184.736 367.097 184.388H367.089Z" fill="#3E51FF"/>
</svg>
