<svg width="57" height="65" viewBox="0 0 57 65" fill="none" xmlns="http://www.w3.org/2000/svg">
<path d="M47.757 5.76225C57.1847 13.3047 58.7583 27.117 51.2706 36.6138C44.6559 45.0046 33.1807 47.2165 24.0939 42.4166L8.30885 62.4387C6.90066 64.2247 4.32296 64.5218 2.54993 63.105C0.776905 61.6865 0.481968 59.09 1.88846 57.304L17.6735 37.2818C10.9735 29.4543 10.5149 17.6959 17.1297 9.30335C24.6173 -0.193386 38.3293 -1.77846 47.757 5.76397V5.76225ZM24.0632 35.8135C31.1127 41.4532 41.3656 40.2682 46.9625 33.1671C52.5612 26.066 51.3849 15.7381 44.3354 10.1002C37.2859 4.46053 27.033 5.64548 21.4361 12.7466C15.8374 19.8477 17.0137 30.1756 24.0632 35.8135Z" fill="#3E51FF" stroke="black" stroke-linecap="round" stroke-linejoin="round"/>
<path d="M34 16.5C29.0753 16.5 24.6394 17.2775 21.4531 18.5166C19.8585 19.1367 18.6021 19.8628 17.7529 20.6436C16.9042 21.4239 16.5 22.2207 16.5 23C16.5 23.7793 16.9042 24.5761 17.7529 25.3564C18.6021 26.1372 19.8585 26.8633 21.4531 27.4834C24.6394 28.7225 29.0753 29.5 34 29.5C38.9247 29.5 43.3606 28.7225 46.5469 27.4834C48.1415 26.8633 49.3979 26.1372 50.2471 25.3564C51.0958 24.5761 51.5 23.7793 51.5 23C51.5 22.2207 51.0958 21.4239 50.2471 20.6436C49.3979 19.8628 48.1415 19.1367 46.5469 18.5166C43.3606 17.2775 38.9247 16.5 34 16.5Z" fill="white" stroke="black"/>
<circle cx="7" cy="7" r="7" transform="matrix(-1 0 0 1 41 16)" fill="black"/>
</svg>
