<svg width="165" height="58" viewBox="0 0 165 58" fill="none" xmlns="http://www.w3.org/2000/svg">
<mask id="path-1-inside-1_499_11921" fill="white">
<path d="M157 0.941895C161.418 0.941896 165 4.52362 165 8.94189V42.9419C165 47.3602 161.418 50.9419 157 50.9419H109.175L83.0078 57.8091C82.675 57.8964 82.325 57.8964 81.9922 57.8091L55.8252 50.9419H8C3.58172 50.9419 0 47.3602 0 42.9419V8.94189C7.08705e-07 4.52362 3.58172 0.941895 8 0.941895H157Z"/>
</mask>
<path d="M157 0.941895C161.418 0.941896 165 4.52362 165 8.94189V42.9419C165 47.3602 161.418 50.9419 157 50.9419H109.175L83.0078 57.8091C82.675 57.8964 82.325 57.8964 81.9922 57.8091L55.8252 50.9419H8C3.58172 50.9419 0 47.3602 0 42.9419V8.94189C7.08705e-07 4.52362 3.58172 0.941895 8 0.941895H157Z" fill="white"/>
<path d="M157 0.941895V-1.05811V0.941895ZM165 42.9419H167H165ZM109.175 50.9419V48.9419H108.917L108.667 49.0074L109.175 50.9419ZM83.0078 57.8091L83.5155 59.7436L83.5155 59.7436L83.0078 57.8091ZM81.9922 57.8091L81.4845 59.7436L81.4845 59.7436L81.9922 57.8091ZM55.8252 50.9419L56.3329 49.0074L56.0833 48.9419H55.8252V50.9419ZM8 50.9419L8 52.9419H8V50.9419ZM0 8.94189L-2 8.94189V8.94189H0ZM157 0.941895V2.94189C160.314 2.9419 163 5.62819 163 8.94189H165H167C167 3.41905 162.523 -1.0581 157 -1.05811V0.941895ZM165 8.94189H163V42.9419H165H167V8.94189H165ZM165 42.9419H163C163 46.2556 160.314 48.9419 157 48.9419V50.9419V52.9419C162.523 52.9419 167 48.4647 167 42.9419H165ZM157 50.9419V48.9419H109.175V50.9419V52.9419H157V50.9419ZM109.175 50.9419L108.667 49.0074L82.5001 55.8746L83.0078 57.8091L83.5155 59.7436L109.682 52.8764L109.175 50.9419ZM83.0078 57.8091L82.5001 55.8746H82.4999L81.9922 57.8091L81.4845 59.7436C82.1501 59.9183 82.8499 59.9183 83.5155 59.7436L83.0078 57.8091ZM81.9922 57.8091L82.4999 55.8746L56.3329 49.0074L55.8252 50.9419L55.3175 52.8764L81.4845 59.7436L81.9922 57.8091ZM55.8252 50.9419V48.9419H8V50.9419V52.9419H55.8252V50.9419ZM8 50.9419L8 48.9419C4.68629 48.9419 2 46.2556 2 42.9419H0H-2C-2 48.4647 2.47715 52.9419 8 52.9419L8 50.9419ZM0 42.9419H2V8.94189H0H-2V42.9419H0ZM0 8.94189H2C2 5.62819 4.68629 2.94189 8 2.94189V0.941895V-1.05811C2.47715 -1.05811 -2 3.41905 -2 8.94189L0 8.94189ZM8 0.941895V2.94189H157V0.941895V-1.05811H8V0.941895Z" fill="#3E51FF" mask="url(#path-1-inside-1_499_11921)"/>
</svg>
