<svg width="165" height="48" viewBox="0 0 165 48" fill="none" xmlns="http://www.w3.org/2000/svg">
<mask id="path-1-inside-1_499_11851" fill="white">
<path d="M157 0.327393C161.418 0.327394 165 3.90912 165 8.32739V32.3274C165 36.7457 161.418 40.3274 157 40.3274H112.128L83.1982 47.9192C82.7406 48.0393 82.2594 48.0393 81.8018 47.9192L52.8721 40.3274H8C3.58172 40.3274 6.44278e-08 36.7457 0 32.3274V8.32739C0 3.90911 3.58172 0.327393 8 0.327393H157Z"/>
</mask>
<path d="M157 0.327393C161.418 0.327394 165 3.90912 165 8.32739V32.3274C165 36.7457 161.418 40.3274 157 40.3274H112.128L83.1982 47.9192C82.7406 48.0393 82.2594 48.0393 81.8018 47.9192L52.8721 40.3274H8C3.58172 40.3274 6.44278e-08 36.7457 0 32.3274V8.32739C0 3.90911 3.58172 0.327393 8 0.327393H157Z" fill="#3E51FF"/>
<path d="M157 0.327393V-1.67261V0.327393ZM165 8.32739H167H165ZM112.128 40.3274V38.3274H111.87L111.62 38.3929L112.128 40.3274ZM83.1982 47.9192L82.6906 45.9847L82.6906 45.9847L83.1982 47.9192ZM81.8018 47.9192L82.3094 45.9847L82.3094 45.9847L81.8018 47.9192ZM52.8721 40.3274L53.3797 38.3929L53.1301 38.3274H52.8721V40.3274ZM8 40.3274L8 42.3274H8V40.3274ZM0 32.3274H-2H0ZM157 0.327393V2.32739C160.314 2.32739 163 5.01369 163 8.32739H165H167C167 2.80455 162.523 -1.67261 157 -1.67261V0.327393ZM165 8.32739H163V32.3274H165H167V8.32739H165ZM165 32.3274H163C163 35.6411 160.314 38.3274 157 38.3274V40.3274V42.3274C162.523 42.3274 167 37.8502 167 32.3274H165ZM157 40.3274V38.3274H112.128V40.3274V42.3274H157V40.3274ZM112.128 40.3274L111.62 38.3929L82.6906 45.9847L83.1982 47.9192L83.7059 49.8537L112.636 42.2619L112.128 40.3274ZM83.1982 47.9192L82.6906 45.9847C82.5658 46.0174 82.4342 46.0174 82.3094 45.9847L81.8018 47.9192L81.2941 49.8537C82.0845 50.0611 82.9155 50.0611 83.7059 49.8537L83.1982 47.9192ZM81.8018 47.9192L82.3094 45.9847L53.3797 38.3929L52.8721 40.3274L52.3644 42.2619L81.2941 49.8537L81.8018 47.9192ZM52.8721 40.3274V38.3274H8V40.3274V42.3274H52.8721V40.3274ZM8 40.3274L8 38.3274C4.68629 38.3274 2 35.6411 2 32.3274H0H-2C-2 37.8502 2.47715 42.3274 8 42.3274L8 40.3274ZM0 32.3274H2V8.32739H0H-2V32.3274H0ZM0 8.32739H2C2 5.01368 4.68629 2.32739 8 2.32739V0.327393V-1.67261C2.47715 -1.67261 -2 2.80455 -2 8.32739H0ZM8 0.327393V2.32739H157V0.327393V-1.67261H8V0.327393Z" fill="black" mask="url(#path-1-inside-1_499_11851)"/>
</svg>
