<svg width="120" height="52" viewBox="0 0 120 52" fill="none" xmlns="http://www.w3.org/2000/svg">
<rect x="0.5" y="0.5" width="119" height="51" rx="6.5" fill="#FF4A4A"/>
<rect x="0.5" y="0.5" width="119" height="51" rx="6.5" stroke="black"/>
<path d="M35.6969 5.80095C41.9206 7.46857 47.2743 9.93883 50.8982 12.5674C52.7114 13.8827 54.0684 15.2217 54.892 16.4977C55.7157 17.7739 55.9763 18.9374 55.705 19.9498C55.4337 20.9622 54.6263 21.8396 53.2749 22.5329C51.9236 23.2261 50.0789 23.7073 47.851 23.9397C43.3983 24.4042 37.5267 23.8667 31.3031 22.1991C25.0794 20.5314 19.7257 18.0612 16.1018 15.4326C14.2886 14.1173 12.9317 12.7783 12.108 11.5023C11.2843 10.2261 11.0238 9.0626 11.295 8.0502C11.5663 7.03779 12.3737 6.16042 13.7251 5.4671C15.0764 4.77387 16.9211 4.29274 19.149 4.06029C23.6017 3.59577 29.4733 4.13333 35.6969 5.80095Z" fill="#FF9933" stroke="black" stroke-width="1.02287"/>
<path d="M84.3031 5.80095C90.5267 4.13333 96.3983 3.59577 100.851 4.06029C103.079 4.29274 104.924 4.77387 106.275 5.4671C107.626 6.16042 108.434 7.03779 108.705 8.0502C108.976 9.0626 108.716 10.2261 107.892 11.5023C107.068 12.7783 105.711 14.1173 103.898 15.4326C100.274 18.0612 94.9206 20.5314 88.6969 22.1991C82.4733 23.8667 76.6017 24.4042 72.149 23.9397C69.9211 23.7073 68.0764 23.2261 66.7251 22.5329C65.3737 21.8396 64.5663 20.9622 64.295 19.9498C64.0238 18.9374 64.2843 17.7739 65.108 16.4977C65.9317 15.2217 67.2886 13.8827 69.1018 12.5674C72.7257 9.93883 78.0794 7.46857 84.3031 5.80095Z" fill="#FF9933" stroke="black" stroke-width="1.02287"/>
<path d="M60.2568 23.0195L109.624 37.6436C109.889 37.7222 110.05 38.0033 109.985 38.2715L108.948 42.5518C108.883 42.82 108.615 42.9738 108.351 42.8955L60 28.5723L11.6494 42.8955C11.3846 42.9739 11.1168 42.8201 11.0518 42.5518L10.0146 38.2715C9.94962 38.0031 10.1112 37.722 10.376 37.6436L59.7432 23.0195C59.8311 22.9936 59.919 22.9947 60 23.0156C60.081 22.9947 60.1688 22.9935 60.2568 23.0195Z" fill="#D9D9D9"/>
<path d="M60.2568 23.0195L60.3988 22.5401L60.3986 22.5401L60.2568 23.0195ZM109.624 37.6436L109.766 37.1643L109.766 37.1641L109.624 37.6436ZM109.985 38.2715L110.471 38.3892L110.471 38.3892L109.985 38.2715ZM108.948 42.5518L109.434 42.6695L109.434 42.6695L108.948 42.5518ZM108.351 42.8955L108.209 43.3749L108.209 43.375L108.351 42.8955ZM60 28.5723L60.142 28.0929C60.0493 28.0654 59.9507 28.0654 59.858 28.0929L60 28.5723ZM11.6494 42.8955L11.5074 42.4161H11.5074L11.6494 42.8955ZM11.0518 42.5518L10.5658 42.6695L10.5658 42.6695L11.0518 42.5518ZM10.0146 38.2715L10.5006 38.1537L10.5006 38.1537L10.0146 38.2715ZM10.376 37.6436L10.234 37.1641L10.2339 37.1642L10.376 37.6436ZM59.7432 23.0195L59.6017 22.54L59.6012 22.5401L59.7432 23.0195ZM60 23.0156L59.8747 23.4997C59.9569 23.5209 60.0431 23.5209 60.1252 23.4997L60 23.0156ZM60.2568 23.0195L60.1148 23.4989L109.482 38.123L109.624 37.6436L109.766 37.1641L60.3988 22.5401L60.2568 23.0195ZM109.624 37.6436L109.482 38.1228C109.483 38.1232 109.489 38.1256 109.495 38.1358C109.501 38.146 109.5 38.1526 109.499 38.1538L109.985 38.2715L110.471 38.3892C110.599 37.8623 110.286 37.3187 109.766 37.1643L109.624 37.6436ZM109.985 38.2715L109.499 38.1537L108.462 42.434L108.948 42.5518L109.434 42.6695L110.471 38.3892L109.985 38.2715ZM108.948 42.5518L108.462 42.434C108.462 42.4347 108.463 42.4322 108.465 42.4286C108.468 42.4252 108.471 42.4223 108.475 42.4201C108.479 42.4179 108.483 42.4166 108.487 42.4161C108.491 42.4156 108.493 42.4163 108.492 42.416L108.351 42.8955L108.209 43.375C108.747 43.534 109.302 43.2168 109.434 42.6695L108.948 42.5518ZM108.351 42.8955L108.493 42.4161L60.142 28.0929L60 28.5723L59.858 29.0517L108.209 43.3749L108.351 42.8955ZM60 28.5723L59.858 28.0929L11.5074 42.4161L11.6494 42.8955L11.7914 43.3749L60.142 29.0517L60 28.5723ZM11.6494 42.8955L11.5074 42.4161C11.5065 42.4164 11.5086 42.4157 11.5129 42.4162C11.5168 42.4166 11.521 42.418 11.5249 42.4202C11.5288 42.4224 11.5321 42.4254 11.5346 42.4287C11.5373 42.4323 11.5379 42.4348 11.5377 42.434L11.0518 42.5518L10.5658 42.6695C10.6984 43.2166 11.2531 43.5344 11.7914 43.3749L11.6494 42.8955ZM11.0518 42.5518L11.5377 42.434L10.5006 38.1537L10.0146 38.2715L9.52871 38.3892L10.5658 42.6695L11.0518 42.5518ZM10.0146 38.2715L10.5006 38.1537C10.5002 38.1523 10.4993 38.1457 10.5051 38.1356C10.5108 38.1256 10.5169 38.1233 10.5181 38.1229L10.376 37.6436L10.2339 37.1642C9.71343 37.3184 9.40104 37.8624 9.52871 38.3892L10.0146 38.2715ZM10.376 37.6436L10.518 38.123L59.8852 23.4989L59.7432 23.0195L59.6012 22.5401L10.234 37.1641L10.376 37.6436ZM59.7432 23.0195L59.8846 23.4991C59.8831 23.4995 59.8808 23.5 59.8783 23.5C59.876 23.5 59.8747 23.4997 59.8747 23.4997L60 23.0156L60.1253 22.5316C59.9624 22.4894 59.7821 22.4867 59.6017 22.54L59.7432 23.0195ZM60 23.0156L60.1252 23.4997C60.1254 23.4996 60.1242 23.5 60.1218 23.4999C60.1192 23.4999 60.1167 23.4995 60.115 23.499L60.2568 23.0195L60.3986 22.5401C60.2177 22.4865 60.0372 22.4895 59.8748 22.5316L60 23.0156Z" fill="black"/>
</svg>
