<svg width="120" height="52" viewBox="0 0 120 52" fill="none" xmlns="http://www.w3.org/2000/svg">
<rect x="0.5" y="0.5" width="119" height="51" rx="6.5" fill="white"/>
<rect x="0.5" y="0.5" width="119" height="51" rx="6.5" stroke="black"/>
<path d="M33.5 9.51172C39.9432 9.51172 45.7539 10.5122 49.9346 12.1133C52.0264 12.9144 53.6837 13.8566 54.8096 14.876C55.9355 15.8954 56.4883 16.9519 56.4883 18C56.4883 19.0481 55.9355 20.1046 54.8096 21.124C53.6837 22.1434 52.0264 23.0856 49.9346 23.8867C45.7539 25.4878 39.9432 26.4883 33.5 26.4883C27.0568 26.4883 21.2461 25.4878 17.0654 23.8867C14.9736 23.0856 13.3163 22.1434 12.1904 21.124C11.0645 20.1046 10.5117 19.0481 10.5117 18C10.5117 16.9519 11.0645 15.8954 12.1904 14.876C13.3163 13.8566 14.9736 12.9144 17.0654 12.1133C21.2461 10.5122 27.0568 9.51172 33.5 9.51172Z" fill="white" stroke="black" stroke-width="1.02287"/>
<circle cx="33" cy="18" r="9" fill="black"/>
<path d="M86.5 9.51172C92.9432 9.51172 98.7539 10.5122 102.935 12.1133C105.026 12.9144 106.684 13.8566 107.81 14.876C108.935 15.8954 109.488 16.9519 109.488 18C109.488 19.0481 108.935 20.1046 107.81 21.124C106.684 22.1434 105.026 23.0856 102.935 23.8867C98.7539 25.4878 92.9432 26.4883 86.5 26.4883C80.0568 26.4883 74.2461 25.4878 70.0654 23.8867C67.9736 23.0856 66.3163 22.1434 65.1904 21.124C64.0645 20.1046 63.5117 19.0481 63.5117 18C63.5117 16.9519 64.0645 15.8954 65.1904 14.876C66.3163 13.8566 67.9736 12.9144 70.0654 12.1133C74.2461 10.5122 80.0568 9.51172 86.5 9.51172Z" fill="white" stroke="black" stroke-width="1.02287"/>
<circle cx="86" cy="18" r="9" fill="black"/>
<rect x="10.5" y="35.5" width="99" height="7" fill="#D9D9D9" stroke="black"/>
</svg>
