<svg width="120" height="52" viewBox="0 0 120 52" fill="none" xmlns="http://www.w3.org/2000/svg">
<rect x="0.5" y="0.5" width="119" height="51" rx="6.5" fill="#AA9408"/>
<rect x="0.5" y="0.5" width="119" height="51" rx="6.5" stroke="black"/>
<path d="M33.5 8.51172C39.9432 8.51172 45.7539 9.51216 49.9346 11.1133C52.0264 11.9144 53.6837 12.8566 54.8096 13.876C55.9355 14.8954 56.4883 15.9519 56.4883 17C56.4883 18.0481 55.9355 19.1046 54.8096 20.124C53.6837 21.1434 52.0264 22.0856 49.9346 22.8867C45.7539 24.4878 39.9432 25.4883 33.5 25.4883C27.0568 25.4883 21.2461 24.4878 17.0654 22.8867C14.9736 22.0856 13.3163 21.1434 12.1904 20.124C11.0645 19.1046 10.5117 18.0481 10.5117 17C10.5117 15.9519 11.0645 14.8954 12.1904 13.876C13.3163 12.8566 14.9736 11.9144 17.0654 11.1133C21.2461 9.51216 27.0568 8.51172 33.5 8.51172Z" fill="white" stroke="black" stroke-width="1.02287"/>
<circle cx="33" cy="17" r="9" fill="black"/>
<path d="M86.5 8.51172C92.9432 8.51172 98.7539 9.51216 102.935 11.1133C105.026 11.9144 106.684 12.8566 107.81 13.876C108.935 14.8954 109.488 15.9519 109.488 17C109.488 18.0481 108.935 19.1046 107.81 20.124C106.684 21.1434 105.026 22.0856 102.935 22.8867C98.7539 24.4878 92.9432 25.4883 86.5 25.4883C80.0568 25.4883 74.2461 24.4878 70.0654 22.8867C67.9736 22.0856 66.3163 21.1434 65.1904 20.124C64.0645 19.1046 63.5117 18.0481 63.5117 17C63.5117 15.9519 64.0645 14.8954 65.1904 13.876C66.3163 12.8566 67.9736 11.9144 70.0654 11.1133C74.2461 9.51216 80.0568 8.51172 86.5 8.51172Z" fill="white" stroke="black" stroke-width="1.02287"/>
<circle cx="86" cy="17" r="9" fill="black"/>
<path d="M60.3107 43.1238C60.2117 43.1457 60.1105 43.1367 60.0177 43.1043C59.9249 43.1365 59.8236 43.1447 59.7247 43.1229L10.3575 32.1707C10.0883 32.1107 9.93878 31.8492 10.0236 31.5867L11.0607 28.3797C11.1459 28.1174 11.434 27.953 11.7032 28.0125L60.0177 38.7322L108.332 28.0125C108.602 27.9527 108.889 28.1173 108.975 28.3797L110.012 31.5867L110.033 31.6844C110.058 31.9113 109.914 32.1183 109.678 32.1707L60.3107 43.1238Z" fill="#D9D9D9"/>
<path d="M60.3107 43.1238L60.4183 43.6121L60.419 43.612L60.3107 43.1238ZM60.0177 43.1043L60.1826 42.6323C60.0762 42.5951 59.9603 42.595 59.8537 42.6319L60.0177 43.1043ZM59.7247 43.1229L59.6164 43.611L59.6167 43.6111L59.7247 43.1229ZM10.3575 32.1707L10.2488 32.6587L10.2493 32.6588L10.3575 32.1707ZM10.0236 31.5867L9.54782 31.4329L9.54776 31.4331L10.0236 31.5867ZM11.0607 28.3797L10.5851 28.2252L10.5849 28.2258L11.0607 28.3797ZM11.7032 28.0125L11.8116 27.5244L11.8111 27.5243L11.7032 28.0125ZM60.0177 38.7322L59.9094 39.2204C59.9807 39.2362 60.0547 39.2362 60.126 39.2204L60.0177 38.7322ZM108.332 28.0125L108.224 27.5244L108.224 27.5244L108.332 28.0125ZM108.975 28.3797L109.45 28.2259L109.45 28.2252L108.975 28.3797ZM110.012 31.5867L110.5 31.4793C110.497 31.4636 110.493 31.4481 110.488 31.4329L110.012 31.5867ZM110.033 31.6844L110.53 31.6303C110.528 31.6124 110.526 31.5946 110.522 31.577L110.033 31.6844ZM109.678 32.1707L109.786 32.6588L109.786 32.6588L109.678 32.1707ZM60.3107 43.1238L60.203 42.6356C60.2029 42.6356 60.1962 42.637 60.1826 42.6323L60.0177 43.1043L59.8528 43.5763C60.0249 43.6364 60.2205 43.6557 60.4183 43.6121L60.3107 43.1238ZM60.0177 43.1043L59.8537 42.6319C59.842 42.636 59.8349 42.6351 59.8327 42.6347L59.7247 43.1229L59.6167 43.6111C59.8124 43.6543 60.0078 43.637 60.1817 43.5767L60.0177 43.1043ZM59.7247 43.1229L59.833 42.6347L10.4658 31.6826L10.3575 32.1707L10.2493 32.6588L59.6164 43.611L59.7247 43.1229ZM10.3575 32.1707L10.4663 31.6827C10.4653 31.6825 10.4693 31.6833 10.4755 31.6878C10.4814 31.6922 10.4873 31.6985 10.4918 31.7064C10.4964 31.7144 10.4988 31.7226 10.4996 31.73C10.5004 31.7376 10.499 31.7414 10.4994 31.7404L10.0236 31.5867L9.54776 31.4331C9.37249 31.9757 9.69207 32.5347 10.2488 32.6587L10.3575 32.1707ZM10.0236 31.5867L10.4993 31.7406L11.5364 28.5335L11.0607 28.3797L10.5849 28.2258L9.54782 31.4329L10.0236 31.5867ZM11.0607 28.3797L11.5362 28.5341C11.5369 28.5322 11.5422 28.5203 11.5609 28.5096C11.5796 28.4989 11.5929 28.5002 11.5954 28.5007L11.7032 28.0125L11.8111 27.5243C11.2911 27.4094 10.75 27.7175 10.5851 28.2252L11.0607 28.3797ZM11.7032 28.0125L11.5949 28.5006L59.9094 39.2204L60.0177 38.7322L60.126 38.2441L11.8116 27.5244L11.7032 28.0125ZM60.0177 38.7322L60.126 39.2204L108.44 28.5006L108.332 28.0125L108.224 27.5244L59.9094 38.2441L60.0177 38.7322ZM108.332 28.0125L108.44 28.5006C108.443 28.5001 108.456 28.4988 108.474 28.5094C108.493 28.52 108.498 28.5319 108.499 28.5342L108.975 28.3797L109.45 28.2252C109.285 27.7177 108.745 27.4088 108.224 27.5244L108.332 28.0125ZM108.975 28.3797L108.499 28.5335L109.536 31.7406L110.012 31.5867L110.488 31.4329L109.45 28.2259L108.975 28.3797ZM110.012 31.5867L109.524 31.6942L109.545 31.7918L110.033 31.6844L110.522 31.577L110.5 31.4793L110.012 31.5867ZM110.033 31.6844L109.536 31.7385C109.535 31.7293 109.538 31.7144 109.548 31.7006C109.552 31.6942 109.558 31.6894 109.562 31.6862C109.567 31.6829 109.57 31.6824 109.569 31.6826L109.678 32.1707L109.786 32.6588C110.269 32.5517 110.583 32.1128 110.53 31.6303L110.033 31.6844ZM109.678 32.1707L109.57 31.6826L60.2024 42.6357L60.3107 43.1238L60.419 43.612L109.786 32.6588L109.678 32.1707Z" fill="black"/>
</svg>
